<svg width="196" height="98" viewBox="0 0 196 98" fill="none" xmlns="http://www.w3.org/2000/svg">
<path d="M136.79 30.6799C137.36 31.8499 137.78 33.0799 138.19 34.3099C139.15 37.1799 139.81 40.1099 140.18 43.1099C140.6 46.4699 140.66 49.8499 140.34 53.2299C139.5 62.1699 136.36 70.2199 130.87 77.3199C124.74 85.2399 116.85 90.6399 107.26 93.5299C104.38 94.3999 101.44 94.9499 98.45 95.2299C95.71 95.4899 92.97 95.5199 90.24 95.2899C80.38 94.4399 71.64 90.8399 64.04 84.4899C63.76 84.2599 63.46 84.0499 63.23 83.7599C65.34 81.9099 67.5 80.1099 69.7 78.3599C75.88 73.4499 82.25 68.8099 88.76 64.3399C88.87 64.2599 88.97 64.1499 89.12 64.1599C89.25 64.3399 89.39 64.5199 89.52 64.6999C90.35 65.8099 91.19 66.9099 92.18 67.8799C92.63 68.3199 93.1 68.7299 93.65 69.0199C94.08 69.2499 94.53 69.4199 95.04 69.3899C95.75 69.3499 96.17 68.7899 96.01 68.0999C95.92 67.6899 95.7 67.3699 95.38 67.1099C94.83 66.6599 94.27 66.2299 93.71 65.7899C92.62 64.9399 91.52 64.0899 90.53 63.1199C92.3 61.9099 94.06 60.6999 95.84 59.4999C96.94 58.7599 98.06 58.0299 99.17 57.2999C99.18 57.8199 99.2 58.3399 99.22 58.9499C99.39 58.7299 99.49 58.5899 99.6 58.4599C100 57.9899 100.45 57.5999 101.05 57.3999C101.27 57.3299 101.48 57.3199 101.7 57.4099C103.64 58.2199 105.7 58.2899 107.73 58.0799C109.93 57.8499 111.75 56.7599 113.26 55.1499C113.53 54.8599 113.75 54.5199 113.93 54.1599C114.25 53.5199 114.35 52.8499 114.23 52.1399C114.08 51.2499 113.72 50.4599 113.17 49.7499C112.89 49.3899 112.55 49.0999 112.26 48.7599C112.38 48.6799 112.5 48.5999 112.62 48.5199C112.66 48.5699 112.71 48.6199 112.75 48.6799C114.22 51.1399 115.53 53.6699 116.65 56.3099C116.75 56.5499 116.74 56.7099 116.51 56.8699C116.24 57.0599 115.97 57.2499 115.76 57.5199C116.09 57.5699 116.4 57.5699 116.71 57.5699C117.17 57.5699 117.14 57.5499 117.3 57.9799C117.98 59.7799 118.55 61.6199 118.92 63.5099C119.32 65.5399 119.51 67.5899 119.17 69.6599C118.91 71.2699 118.33 72.7299 117.22 73.9499C116.69 74.5299 116.06 74.9199 115.31 75.1399C113.95 75.5299 112.57 75.5299 111.18 75.3799C109.13 75.1599 107.18 74.5499 105.29 73.7499C105.17 73.6999 105.06 73.5999 104.89 73.6499C104.85 73.9499 105.06 74.0299 105.27 74.1099C106.7 74.6799 108.17 75.1699 109.67 75.5199C111.28 75.8899 112.9 76.1299 114.57 75.9599C116.48 75.7599 117.94 74.8799 118.89 73.1899C119.26 72.5399 119.52 71.8399 119.69 71.1099C120.2 68.9299 120.08 66.7399 119.74 64.5499C119.4 62.3499 118.79 60.2199 118.06 58.1299C118.01 57.9699 117.88 57.8199 117.97 57.5799C118.98 57.5799 120.01 57.5799 121.12 57.5799C120.92 57.2999 120.76 57.0899 120.62 56.8799C120.32 56.4499 120.18 55.9899 120.3 55.4599C120.42 54.9399 120.53 54.4099 120.61 53.8799C120.65 53.6399 120.75 53.5699 120.99 53.5699C122.71 53.5799 124.42 53.5799 126.14 53.5699C126.37 53.5699 126.49 53.6299 126.56 53.8499C126.71 54.3299 126.87 54.7999 126.97 55.2999C127.06 55.7099 126.98 56.0899 126.75 56.4399C126.58 56.6999 126.38 56.9399 126.16 57.1699C126.06 57.2699 125.92 57.3499 125.87 57.5099C127.22 57.6199 135.47 57.5699 135.84 57.4499C135.2 57.0599 134.8 56.4899 134.55 55.8099C134.21 54.8999 133.87 53.9999 133.53 53.0899C131.99 48.9399 130.44 44.7799 128.9 40.6299C128.68 40.0399 128.77 40.1399 128.22 40.1399C127.28 40.1299 126.35 40.1399 125.41 40.1399C125.22 40.1399 125.03 40.1799 124.85 40.0899C128.01 37.8199 131.13 35.4899 134.09 32.9699C134.99 32.1899 135.89 31.4299 136.79 30.6799ZM126.02 75.1599C126.03 75.0499 126.03 74.8599 126.05 74.6799C126.06 74.5499 125.99 74.3599 126.15 74.3099C126.43 74.2199 126.45 73.8399 126.79 73.8299C127.02 73.8299 127.25 73.7499 127.49 73.7099C127 73.7099 126.53 73.6799 126.19 73.2399C126.12 73.1399 126.04 73.0699 126.03 72.9399C126 72.7299 125.96 72.5199 125.92 72.2699C125.9 72.4199 125.89 72.5099 125.88 72.5999C125.82 73.3299 125.55 73.6199 124.81 73.7599C124.72 73.7799 124.64 73.7899 124.5 73.8199C125.52 73.8299 125.8 73.9799 126.02 75.1599ZM78.68 83.4799C77.73 83.4999 77.29 83.0699 77.15 81.9799C77.13 82.2499 77.12 82.4499 77.11 82.6499C77.1 82.7299 77.13 82.8399 77.06 82.8899C76.74 83.1099 76.57 83.5799 76.06 83.4599C75.99 83.4399 75.89 83.4399 75.82 83.5099C75.92 83.5199 76.02 83.5399 76.13 83.5499C76.4 83.5899 76.62 83.6199 76.86 83.8499C77.08 84.0699 77.14 84.2899 77.19 84.5599C77.21 84.6599 77.24 84.7699 77.27 84.9099C77.37 84.5199 77.29 84.1599 77.64 83.8199C77.97 83.4699 78.36 83.6399 78.68 83.4799ZM130.1 64.9999C130.13 64.7799 130.15 64.5399 130.18 64.2999C130.19 64.2299 130.2 64.1399 130.24 64.1099C130.55 63.8999 130.75 63.4899 131.23 63.5599C131.34 63.5799 131.47 63.5699 131.53 63.5199C131.26 63.3199 130.87 63.6499 130.57 63.2599C130.35 62.9799 130.03 62.7699 130.03 62.3399C130.05 62.7399 129.8 62.9599 129.61 63.2399C129.37 63.6199 128.94 63.3399 128.74 63.5799C128.99 63.6799 129.29 63.5499 129.55 63.7399C130.02 64.0699 130.05 64.5499 130.1 64.9999ZM80.64 73.9499C80.34 73.9499 80.12 74.1699 80.12 74.4599C80.12 74.7299 80.34 74.9499 80.6 74.9699C80.87 74.9899 81.14 74.7499 81.15 74.4699C81.17 74.1899 80.94 73.9499 80.64 73.9499ZM131.63 66.2899C131.36 66.2799 131.1 66.5199 131.09 66.7999C131.08 67.0599 131.3 67.2999 131.56 67.3199C131.85 67.3499 132.1 67.1399 132.11 66.8399C132.13 66.5499 131.92 66.2999 131.63 66.2899ZM118.64 64.2199C118.63 63.9399 118.36 63.7099 118.09 63.7199C117.8 63.7399 117.59 63.9899 117.61 64.2799C117.63 64.5499 117.85 64.7499 118.12 64.7399C118.42 64.7399 118.65 64.4999 118.64 64.2199ZM124.91 64.4799C125.19 64.4899 125.43 64.2599 125.44 63.9699C125.44 63.6899 125.25 63.4799 124.98 63.4599C124.69 63.4399 124.43 63.6499 124.41 63.9299C124.39 64.1899 124.64 64.4599 124.91 64.4799ZM118.64 67.5799C118.65 67.2999 118.4 67.0599 118.12 67.0599C117.85 67.0599 117.63 67.2699 117.61 67.5299C117.59 67.8199 117.81 68.0599 118.1 68.0799C118.38 68.0899 118.63 67.8599 118.64 67.5799ZM124.55 61.5799C124.54 61.3799 124.33 61.1699 124.14 61.1999C123.93 61.2299 123.8 61.3499 123.78 61.5699C123.76 61.7799 123.96 61.9699 124.16 61.9699C124.36 61.9799 124.55 61.7899 124.55 61.5799ZM114.49 72.4699C114.69 72.4699 114.9 72.2699 114.88 72.0699C114.86 71.8599 114.73 71.7199 114.52 71.6999C114.33 71.6699 114.11 71.8699 114.1 72.0699C114.09 72.2699 114.29 72.4699 114.49 72.4699ZM116.37 82.7899C116.57 82.7799 116.75 82.5699 116.73 82.3699C116.71 82.1899 116.53 82.0199 116.35 82.0199C116.15 82.0199 115.96 82.2099 115.96 82.4199C115.97 82.6199 116.16 82.7999 116.37 82.7899ZM114.94 66.8299C114.95 66.6099 114.78 66.4199 114.57 66.4299C114.36 66.4399 114.22 66.5499 114.19 66.7699C114.16 66.9799 114.33 67.1799 114.54 67.1999C114.74 67.2099 114.93 67.0399 114.94 66.8299ZM129.1 67.2599C128.89 67.2599 128.71 67.4399 128.72 67.6599C128.73 67.8799 128.86 68.0099 129.07 68.0299C129.27 68.0499 129.47 67.8699 129.48 67.6599C129.49 67.4399 129.31 67.2599 129.1 67.2599ZM92.03 77.8599C92.03 77.6399 91.86 77.4699 91.64 77.4799C91.43 77.4899 91.29 77.6099 91.27 77.8299C91.25 78.0399 91.42 78.2299 91.63 78.2399C91.85 78.2499 92.03 78.0799 92.03 77.8599ZM76.32 78.0099C76.31 77.7999 76.12 77.6199 75.92 77.6299C75.72 77.6499 75.54 77.8499 75.56 78.0599C75.59 78.2799 75.73 78.3899 75.94 78.4099C76.14 78.4199 76.32 78.2199 76.32 78.0099ZM125.34 71.5799C125.35 71.3599 125.18 71.1699 124.96 71.1699C124.77 71.1699 124.6 71.3399 124.59 71.5299C124.58 71.7499 124.75 71.9399 124.97 71.9299C125.17 71.9399 125.33 71.7799 125.34 71.5799ZM101.22 74.5599C101.23 74.3699 101.07 74.1899 100.87 74.1799C100.65 74.1599 100.45 74.3299 100.45 74.5399C100.44 74.7299 100.6 74.9099 100.8 74.9199C101.02 74.9399 101.22 74.7699 101.22 74.5599ZM81.6 78.9799C81.59 78.7599 81.42 78.5999 81.2 78.6199C80.99 78.6399 80.86 78.7599 80.85 78.9899C80.84 79.2099 81.02 79.3899 81.23 79.3899C81.44 79.3799 81.61 79.1999 81.6 78.9799ZM128.5 74.1999C128.71 74.2099 128.87 74.0799 128.89 73.8699C128.91 73.6399 128.76 73.4599 128.54 73.4499C128.32 73.4399 128.14 73.6099 128.14 73.8299C128.14 74.0399 128.29 74.1899 128.5 74.1999Z" fill="#0C3E91"/>
<path d="M48.6003 59.04C47.6503 54.85 47.3003 50.61 47.5703 46.33C48.3903 33.73 53.4503 23.1 62.7403 14.55C68.6603 9.09997 75.6103 5.50997 83.4503 3.65997C85.9203 3.07997 88.4203 2.71997 90.9503 2.55997C93.6203 2.38997 96.2903 2.41997 98.9503 2.70997C108.34 3.74997 116.68 7.28997 123.93 13.35C127.74 16.53 130.94 20.25 133.57 24.47C133.46 24.64 133.27 24.7 133.11 24.8C131.3 25.89 129.45 26.91 127.57 27.88C121.57 30.96 115.4 33.65 109.15 36.19C108.11 36.61 107.07 37.04 106.03 37.47C105.9 37.4 105.83 37.28 105.74 37.17C104.4 35.53 103 33.95 101.53 32.42C98.1003 28.84 94.4003 25.57 90.2403 22.85C87.8803 21.31 85.4203 19.97 82.7303 19.08C80.7603 18.43 78.7403 18.01 76.6403 18.3C74.7503 18.56 73.1803 19.37 72.0503 20.95C71.5303 21.68 71.1803 22.49 70.9403 23.34C70.4203 25.17 70.4003 27.04 70.5703 28.91C70.7603 31.04 71.2303 33.12 71.8503 35.16C73.1303 39.41 74.9703 43.42 77.1503 47.28C77.0703 47.32 77.0003 47.37 76.9203 47.4C75.0103 48.07 73.0903 48.74 71.1803 49.41C71.1703 49.22 71.1603 49.03 71.1603 48.84C71.1603 46.9 71.1903 44.96 71.1503 43.02C71.1303 42 71.5003 41.17 72.1503 40.43C72.2203 40.35 72.3703 40.31 72.3303 40.17C70.6703 40.17 69.0203 40.17 67.3103 40.17C67.5003 40.35 67.6403 40.47 67.7703 40.6C68.4803 41.32 68.8803 42.13 68.8603 43.19C68.8103 45.34 68.8503 47.49 68.8403 49.63C68.8403 49.85 68.8203 50.08 68.8203 50.3C68.6903 50.35 68.5703 50.4 68.4403 50.45C68.2903 50.32 68.2203 50.14 68.1303 49.98C66.2703 46.83 64.4103 43.68 62.5603 40.53C62.3803 40.21 62.1803 40.11 61.8203 40.12C59.5803 40.13 57.3403 40.13 55.1003 40.13C54.9603 40.13 54.8003 40.1 54.6303 40.18C54.9603 40.49 55.2703 40.76 55.5603 41.06C56.0403 41.56 56.3703 42.14 56.3703 42.86C56.3703 46.87 56.3703 50.87 56.3803 54.88C56.3803 55.05 56.4103 55.23 56.3203 55.39C54.7403 56.05 53.2103 56.79 51.6703 57.53C50.6403 58.03 49.6203 58.54 48.6003 59.04ZM102.06 10.97C103.42 11.05 103.5 11.7 103.5 12.52C103.55 12.35 103.56 12.05 103.58 11.75C103.58 11.68 103.59 11.59 103.63 11.56C103.96 11.34 104.16 10.9 104.66 11C104.76 11.02 104.86 10.98 104.99 10.97C104.76 10.94 104.56 10.91 104.36 10.89C104.26 10.88 104.14 10.9 104.07 10.8C103.86 10.48 103.4 10.29 103.51 9.77997C103.52 9.70997 103.47 9.62997 103.46 9.56997C103.33 9.91997 103.52 10.39 103.05 10.61C102.85 11.12 102.34 10.8 102.06 10.97ZM103.67 21.01C103.39 21 103.14 21.23 103.14 21.52C103.14 21.79 103.34 22.01 103.61 22.04C103.89 22.06 104.15 21.84 104.17 21.56C104.19 21.28 103.95 21.02 103.67 21.01ZM91.2603 10.88C90.9703 10.89 90.7403 11.13 90.7603 11.41C90.7703 11.67 91.0003 11.89 91.2603 11.9C91.5403 11.91 91.7903 11.67 91.7903 11.39C91.7903 11.09 91.5503 10.87 91.2603 10.88ZM97.1403 12.09C97.1503 11.8 96.9103 11.55 96.6303 11.55C96.3603 11.55 96.1103 11.8 96.1103 12.08C96.1103 12.34 96.3303 12.56 96.6003 12.58C96.9003 12.6 97.1303 12.38 97.1403 12.09ZM86.0603 18.34C86.0703 18.13 85.9003 17.94 85.6803 17.94C85.4603 17.94 85.3303 18.06 85.3003 18.27C85.2703 18.48 85.4303 18.68 85.6503 18.69C85.8503 18.72 86.0503 18.55 86.0603 18.34ZM86.2603 16.39C86.4603 16.39 86.6603 16.19 86.6403 15.98C86.6203 15.77 86.4903 15.64 86.2803 15.61C86.0803 15.59 85.8803 15.79 85.8803 15.99C85.8703 16.2 86.0603 16.39 86.2603 16.39ZM85.2003 14.86C84.9803 14.87 84.8203 15.05 84.8303 15.26C84.8503 15.48 85.0303 15.63 85.2503 15.61C85.4503 15.59 85.6003 15.43 85.5903 15.23C85.6003 15.02 85.4203 14.85 85.2003 14.86ZM87.8003 16.75C87.7903 16.54 87.5903 16.37 87.3803 16.4C87.1603 16.43 87.0403 16.56 87.0303 16.77C87.0203 16.97 87.2203 17.16 87.4303 17.15C87.6403 17.14 87.8103 16.95 87.8003 16.75ZM97.0803 17.56C97.0903 17.36 96.9103 17.16 96.7003 17.16C96.4903 17.15 96.3003 17.33 96.3003 17.54C96.3003 17.72 96.4603 17.9 96.6503 17.91C96.8703 17.93 97.0603 17.76 97.0803 17.56ZM92.6203 14.96C92.4103 14.97 92.2203 15.16 92.2503 15.36C92.2803 15.56 92.4003 15.7 92.6203 15.71C92.8303 15.72 93.0203 15.54 93.0203 15.34C93.0203 15.13 92.8303 14.95 92.6203 14.96ZM94.1203 5.89997C93.9103 5.89997 93.7503 6.03997 93.7403 6.23997C93.7203 6.46997 93.8803 6.63997 94.1103 6.64997C94.3103 6.64997 94.4803 6.50997 94.5003 6.30997C94.5203 6.08997 94.3503 5.90997 94.1203 5.89997Z" fill="#0C3E91"/>
<path d="M62.1804 82.85C59.4304 80.25 57.0104 77.38 54.9604 74.21C52.2604 70.05 50.2804 65.57 49.0104 60.77C48.9804 60.67 48.9604 60.57 48.9404 60.47C51.1604 59.42 53.4504 58.5 55.7604 57.67C55.8904 57.62 56.0304 57.59 56.1604 57.59C57.5104 57.59 58.8604 57.6 60.2204 57.61C60.3404 57.49 60.2304 57.44 60.1604 57.37C59.8604 57.09 59.5204 56.86 59.3104 56.49C60.8104 56.02 62.3204 55.54 63.8204 55.07C64.2504 55.78 64.6904 56.48 65.1004 57.2C65.2504 57.46 65.4204 57.55 65.7104 57.55C67.9304 57.54 70.1504 57.54 72.3604 57.54C72.4704 57.54 72.6004 57.61 72.6804 57.45C72.2604 57.06 71.8404 56.67 71.5204 56.2C71.3404 55.93 71.1604 55.64 71.1604 55.3C71.1604 54.56 71.1204 53.81 71.1804 53.07C73.9104 52.38 76.6404 51.7 79.3604 51.01C79.3504 51.1 79.3604 51.18 79.3304 51.27C78.9804 52.52 78.6104 53.76 78.2904 55.02C78.1304 55.66 77.7904 56.15 77.3004 56.56C77.0904 56.74 76.8704 56.91 76.6604 57.09C76.5004 57.23 76.2904 57.32 76.1304 57.56C77.9404 57.56 79.6904 57.56 81.5004 57.56C81.3104 57.3 81.1604 57.09 81.0204 56.89C80.8104 56.59 80.6304 56.25 80.6704 55.88C80.7404 55.15 80.9004 54.43 81.0904 53.72C81.2904 53.78 81.3304 53.92 81.4104 54.03C82.7704 55.95 84.2104 57.82 85.7304 59.62C86.5104 60.55 87.3004 61.47 87.9504 62.5C87.8504 62.65 87.6904 62.73 87.5504 62.82C85.2404 64.39 82.9304 65.96 80.6304 67.54C78.5004 69 76.3504 70.43 74.3604 72.1C71.1504 74.78 68.0404 77.57 64.9404 80.38C64.0404 81.18 63.1104 82.02 62.1804 82.85ZM67.0004 74.36C67.0104 74.07 66.7804 73.84 66.4804 73.84C66.2004 73.84 65.9904 74.03 65.9704 74.31C65.9504 74.6 66.1704 74.85 66.4504 74.87C66.7304 74.88 66.9904 74.64 67.0004 74.36ZM77.4904 67.33C77.2104 67.34 76.9804 67.59 77.0004 67.88C77.0204 68.17 77.2604 68.38 77.5504 68.36C77.8104 68.34 78.0304 68.1 78.0204 67.84C78.0204 67.57 77.7604 67.32 77.4904 67.33ZM65.1204 70.69C65.4004 70.7 65.6504 70.46 65.6504 70.18C65.6504 69.92 65.4304 69.69 65.1704 69.67C64.8804 69.65 64.6304 69.86 64.6204 70.15C64.6004 70.44 64.8304 70.68 65.1204 70.69ZM77.7404 58.89C77.7404 58.68 77.5604 58.49 77.3504 58.5C77.1404 58.5 76.9704 58.69 76.9804 58.91C76.9904 59.13 77.1304 59.25 77.3404 59.27C77.5404 59.29 77.7304 59.1 77.7404 58.89ZM72.5304 72.12C72.3204 72.14 72.1604 72.34 72.1804 72.55C72.2004 72.74 72.3804 72.9 72.5604 72.9C72.7704 72.9 72.9504 72.71 72.9404 72.5C72.9304 72.28 72.7404 72.1 72.5304 72.12ZM64.8404 72.81C64.8304 72.6 64.6504 72.42 64.4404 72.43C64.2304 72.44 64.0704 72.64 64.0904 72.85C64.1104 73.07 64.2604 73.18 64.4604 73.2C64.6704 73.22 64.8504 73.02 64.8404 72.81ZM60.0104 70.43C59.7904 70.43 59.6104 70.62 59.6304 70.83C59.6404 71.03 59.8104 71.18 60.0104 71.18C60.2304 71.18 60.4004 71 60.3904 70.78C60.3804 70.57 60.2204 70.43 60.0104 70.43Z" fill="#0C3E91"/>
<path d="M106.04 37.46C107.08 37.03 108.12 36.61 109.16 36.18C115.4 33.64 121.58 30.95 127.58 27.87C129.46 26.9 131.31 25.88 133.12 24.79C133.28 24.69 133.47 24.63 133.58 24.46C134.27 24.13 134.9 23.7 135.54 23.29C140.83 19.99 145.73 16.21 150.09 11.75C151.61 10.2 153.05 8.59003 154.41 6.89003C154.51 6.77003 154.59 6.64003 154.76 6.53003C154.69 6.92003 154.53 7.24003 154.4 7.58003C152.98 11.26 151.03 14.64 148.72 17.82C145.62 22.11 141.98 25.91 138.06 29.46C137.62 29.85 137.15 30.21 136.77 30.66C135.87 31.42 134.97 32.17 134.08 32.94C131.11 35.46 128 37.79 124.84 40.06C123.72 40.85 122.61 41.63 121.49 42.42C121.36 42.51 121.23 42.59 121.13 42.72C121.04 42.77 120.95 42.82 120.86 42.88C118.87 44.24 116.89 45.6 114.9 46.96C114.39 47.31 113.86 47.64 113.34 47.98C112.98 47.48 112.69 46.95 112.4 46.41C114.93 44.67 117.42 42.89 119.89 41.08C120.04 40.97 120.21 40.87 120.32 40.71C120.6 40.57 120.84 40.37 121.09 40.16C121.81 39.71 122.47 39.17 123.15 38.66C125.99 36.52 128.82 34.37 131.51 32.04C131.68 31.89 131.84 31.73 132.01 31.57C129.56 33.17 127.05 34.63 124.46 35.97C120.55 38.01 116.53 39.79 112.42 41.38C112.33 40.92 112.47 40.43 112.34 39.94C112.09 40.14 111.88 40.33 111.66 40.49C111.39 40.69 111.08 40.81 110.74 40.75C109.99 40.62 109.24 40.49 108.49 40.37C108.34 40.35 108.24 40.29 108.15 40.17C107.44 39.27 106.74 38.37 106.04 37.46Z" fill="#FB3E22"/>
<path d="M62.18 82.8499C63.11 82.0099 64.03 81.1799 64.96 80.3399C68.05 77.5299 71.17 74.7399 74.38 72.0599C76.37 70.3999 78.52 68.9599 80.65 67.4999C82.95 65.9199 85.26 64.3499 87.57 62.7799C87.71 62.6799 87.87 62.5999 87.97 62.4599C88.37 62.2499 88.73 61.9799 89.09 61.7199C89.17 61.6799 89.25 61.6499 89.32 61.5999C91.2 60.3299 93.08 59.0599 94.97 57.7899C95.07 57.7199 95.17 57.6599 95.23 57.5499C95.47 57.4699 95.66 57.2999 95.86 57.1599C96.8 56.5999 97.68 55.9599 98.59 55.3599C98.8 55.2199 99.05 55.1099 99.21 54.8999C99.63 54.6799 100.01 54.4099 100.39 54.1199C100.47 54.0799 100.55 54.0499 100.62 54.0099C101.81 53.2299 102.99 52.4499 104.18 51.6699C104.28 51.5999 104.39 51.5399 104.45 51.4299C104.95 51.1999 105.4 50.8599 105.86 50.5599C107.4 49.5499 109.03 48.6699 110.56 47.6299C110.95 47.4299 111.3 47.1699 111.66 46.9099C112.01 47.4299 112.37 47.9499 112.63 48.5299C112.51 48.6099 112.39 48.6899 112.27 48.7699C112.16 48.8299 112.05 48.8699 111.95 48.9399C110.34 49.9999 108.73 51.0599 107.12 52.1299C107.04 52.1899 106.94 52.2299 106.89 52.3299C106.76 52.4099 106.62 52.4799 106.49 52.5699C105.15 53.4299 103.81 54.2999 102.47 55.1699C101.73 55.6399 100.98 56.1099 100.25 56.5899C99.89 56.8199 99.5 57.0199 99.19 57.3199C98.08 58.0499 96.96 58.7699 95.86 59.5199C94.09 60.7199 92.32 61.9299 90.55 63.1399C90.22 63.2799 89.95 63.5099 89.66 63.7199C89.47 63.8499 89.22 63.9199 89.14 64.1699C88.99 64.1699 88.89 64.2699 88.78 64.3499C82.27 68.8099 75.9 73.4599 69.72 78.3699C67.52 80.1199 65.36 81.9099 63.25 83.7699C62.47 84.3499 61.76 85.0099 61.03 85.6499C59.06 87.3699 57.11 89.1099 55.16 90.8499C55.02 90.9799 54.87 91.0999 54.68 91.2699C54.6 90.8899 54.72 90.5599 54.71 90.2399C54.69 89.8399 54.94 89.6499 55.18 89.4299C57.5 87.2199 59.84 85.0399 62.18 82.8499Z" fill="#FB3E22"/>
<path d="M60.2302 57.5999C58.8802 57.5899 57.5302 57.5799 56.1702 57.5799C56.0302 57.5799 55.8902 57.6199 55.7702 57.6599C53.4502 58.4899 51.1702 59.4099 48.9502 60.4599C48.0502 60.8099 47.1902 61.2599 46.3302 61.7099C45.1802 62.2999 44.0302 62.9099 42.9002 63.5499C42.5502 63.7499 42.2502 63.7899 41.8902 63.5999C41.6902 63.4899 41.4402 63.4499 41.2202 63.2899C43.6102 61.7199 46.1002 60.3599 48.6002 59.0299C49.6202 58.5299 50.6402 58.0199 51.6702 57.5299C53.2102 56.7899 54.7502 56.0499 56.3202 55.3899C56.2002 56.2999 55.6102 56.9199 54.9602 57.5199C55.5202 57.5699 56.0702 57.5699 56.6102 57.5699C57.8102 57.5899 59.0202 57.5899 60.2302 57.5999Z" fill="#FB3E22"/>
<path d="M126.02 75.16C125.8 73.98 125.52 73.83 124.5 73.82C124.63 73.79 124.72 73.78 124.81 73.76C125.55 73.63 125.82 73.33 125.88 72.6C125.89 72.51 125.9 72.42 125.92 72.27C125.96 72.53 126 72.73 126.03 72.94C126.05 73.07 126.12 73.14 126.19 73.24C126.53 73.68 127 73.72 127.49 73.71C127.25 73.75 127.02 73.83 126.79 73.83C126.45 73.84 126.42 74.22 126.15 74.31C125.99 74.36 126.06 74.55 126.05 74.68C126.03 74.86 126.03 75.05 126.02 75.16Z" fill="white"/>
<path d="M78.6803 83.48C78.3603 83.64 77.9703 83.47 77.6203 83.82C77.2803 84.16 77.3503 84.52 77.2503 84.91C77.2203 84.77 77.1903 84.67 77.1703 84.56C77.1303 84.29 77.0703 84.08 76.8403 83.85C76.6103 83.62 76.3803 83.59 76.1103 83.55C76.0103 83.54 75.9103 83.52 75.8003 83.51C75.8703 83.44 75.9703 83.44 76.0403 83.46C76.5503 83.58 76.7303 83.11 77.0403 82.89C77.1203 82.84 77.0903 82.73 77.0903 82.65C77.1003 82.45 77.1103 82.25 77.1303 81.98C77.2803 83.07 77.7303 83.5 78.6803 83.48Z" fill="white"/>
<path d="M130.1 64.9999C130.05 64.5499 130.01 64.0699 129.57 63.7499C129.31 63.5599 129.01 63.6899 128.76 63.5899C128.96 63.3399 129.39 63.6299 129.63 63.2499C129.81 62.9599 130.07 62.7399 130.05 62.3499C130.04 62.7799 130.37 62.9799 130.59 63.2699C130.89 63.6599 131.28 63.3199 131.55 63.5299C131.49 63.5799 131.36 63.5899 131.25 63.5699C130.77 63.4999 130.57 63.9099 130.26 64.1199C130.22 64.1499 130.21 64.2399 130.2 64.3099C130.15 64.5399 130.13 64.7799 130.1 64.9999Z" fill="white"/>
<path d="M80.6401 73.95C80.9301 73.95 81.1601 74.19 81.1501 74.48C81.1401 74.75 80.8701 74.99 80.6001 74.98C80.3401 74.96 80.1201 74.74 80.1201 74.47C80.1201 74.16 80.3401 73.94 80.6401 73.95Z" fill="white"/>
<path d="M131.63 66.2899C131.92 66.2999 132.13 66.5499 132.11 66.8399C132.09 67.1299 131.85 67.3399 131.56 67.3199C131.3 67.2999 131.08 67.0599 131.09 66.7999C131.1 66.5199 131.36 66.2699 131.63 66.2899Z" fill="white"/>
<path d="M118.64 64.2201C118.65 64.5001 118.42 64.7401 118.13 64.7501C117.85 64.7501 117.64 64.5601 117.62 64.2901C117.6 64.0001 117.81 63.7501 118.1 63.7301C118.36 63.7001 118.63 63.9401 118.64 64.2201Z" fill="white"/>
<path d="M124.91 64.48C124.64 64.47 124.39 64.2 124.41 63.93C124.43 63.65 124.69 63.43 124.98 63.46C125.26 63.48 125.45 63.69 125.44 63.97C125.44 64.25 125.2 64.49 124.91 64.48Z" fill="white"/>
<path d="M118.64 67.5799C118.63 67.8599 118.38 68.0899 118.1 68.0799C117.81 68.0699 117.59 67.8299 117.61 67.5299C117.63 67.2599 117.85 67.0499 118.12 67.0599C118.4 67.0599 118.65 67.2999 118.64 67.5799Z" fill="white"/>
<path d="M124.55 61.5799C124.56 61.7799 124.36 61.9799 124.16 61.9799C123.95 61.9799 123.76 61.7799 123.78 61.5799C123.8 61.3599 123.94 61.2399 124.14 61.2099C124.33 61.1799 124.54 61.3899 124.55 61.5799Z" fill="white"/>
<path d="M114.49 72.47C114.29 72.47 114.09 72.27 114.1 72.07C114.11 71.87 114.32 71.67 114.52 71.7C114.73 71.73 114.86 71.86 114.88 72.07C114.9 72.28 114.69 72.48 114.49 72.47Z" fill="white"/>
<path d="M116.37 82.79C116.17 82.8 115.97 82.62 115.97 82.41C115.97 82.2 116.15 82.01 116.36 82.01C116.54 82.01 116.72 82.18 116.74 82.36C116.74 82.57 116.57 82.78 116.37 82.79Z" fill="white"/>
<path d="M114.94 66.8301C114.93 67.0401 114.74 67.2201 114.53 67.2001C114.32 67.1801 114.16 66.9801 114.18 66.7701C114.21 66.5501 114.35 66.4401 114.56 66.4301C114.78 66.4201 114.95 66.6101 114.94 66.8301Z" fill="white"/>
<path d="M129.1 67.26C129.31 67.26 129.49 67.45 129.48 67.66C129.47 67.87 129.28 68.05 129.07 68.03C128.86 68.01 128.73 67.88 128.72 67.66C128.71 67.44 128.89 67.26 129.1 67.26Z" fill="white"/>
<path d="M92.0302 77.8599C92.0302 78.0799 91.8502 78.2499 91.6302 78.2399C91.4202 78.2299 91.2502 78.0399 91.2702 77.8299C91.2902 77.6099 91.4302 77.4999 91.6402 77.4799C91.8702 77.4699 92.0402 77.6399 92.0302 77.8599Z" fill="white"/>
<path d="M76.3204 78.01C76.3304 78.22 76.1404 78.42 75.9404 78.41C75.7304 78.39 75.5904 78.28 75.5604 78.06C75.5304 77.86 75.7104 77.65 75.9204 77.63C76.1104 77.62 76.3104 77.8 76.3204 78.01Z" fill="white"/>
<path d="M125.34 71.5801C125.33 71.7801 125.17 71.9401 124.97 71.9401C124.75 71.9401 124.58 71.7601 124.59 71.5401C124.6 71.3401 124.77 71.1801 124.96 71.1801C125.18 71.1701 125.35 71.3501 125.34 71.5801Z" fill="white"/>
<path d="M101.22 74.5601C101.21 74.7801 101.02 74.9401 100.8 74.9201C100.6 74.9001 100.44 74.7301 100.45 74.5401C100.46 74.3301 100.66 74.1601 100.87 74.1801C101.07 74.1901 101.23 74.3601 101.22 74.5601Z" fill="white"/>
<path d="M81.6001 78.9801C81.6101 79.2001 81.4401 79.3801 81.2301 79.3801C81.0201 79.3801 80.8501 79.2001 80.8501 78.9801C80.8601 78.7601 80.9801 78.6401 81.2001 78.6101C81.4201 78.6001 81.5901 78.7601 81.6001 78.9801Z" fill="white"/>
<path d="M128.5 74.1999C128.29 74.1899 128.14 74.0399 128.14 73.8299C128.14 73.6099 128.32 73.4399 128.54 73.4499C128.77 73.4599 128.92 73.6399 128.89 73.8699C128.87 74.0799 128.71 74.2099 128.5 74.1999Z" fill="white"/>
<path d="M71.2003 53.06C71.1503 51.84 71.1703 50.63 71.1903 49.41C73.1003 48.74 75.0203 48.07 76.9303 47.4C77.0103 47.37 77.0803 47.3199 77.1603 47.2799C77.5103 47.1899 77.8503 47.0799 78.1803 46.9399C78.4103 46.9299 78.6103 46.8199 78.8303 46.7599C79.4403 46.5899 80.0203 46.3 80.6603 46.2C80.7203 46.38 80.6403 46.54 80.6003 46.7C80.3703 47.58 80.1403 48.46 79.8903 49.33C79.7303 49.89 79.6303 50.47 79.3903 51C76.6603 51.69 73.9303 52.37 71.2003 53.06Z" fill="#FB3E22"/>
<path d="M102.06 10.9701C102.34 10.8001 102.85 11.1201 103.05 10.6101C103.51 10.3801 103.32 9.92007 103.46 9.57007C103.48 9.63007 103.53 9.71007 103.51 9.78007C103.41 10.2801 103.86 10.4701 104.07 10.8001C104.14 10.9001 104.25 10.8801 104.36 10.8901C104.56 10.9201 104.76 10.9401 104.99 10.9701C104.86 10.9801 104.75 11.0201 104.66 11.0001C104.16 10.9001 103.95 11.3401 103.63 11.5601C103.59 11.5901 103.58 11.6801 103.58 11.7501C103.56 12.0501 103.55 12.3601 103.5 12.5201C103.5 11.7001 103.42 11.0501 102.06 10.9701Z" fill="white"/>
<path d="M103.67 21.0101C103.95 21.0201 104.19 21.2801 104.17 21.5601C104.15 21.8401 103.89 22.0701 103.61 22.0401C103.34 22.0201 103.14 21.7901 103.14 21.5201C103.14 21.2401 103.39 21.0001 103.67 21.0101Z" fill="white"/>
<path d="M91.26 10.88C91.55 10.87 91.79 11.1 91.79 11.39C91.79 11.67 91.55 11.91 91.26 11.9C90.99 11.89 90.77 11.68 90.76 11.41C90.74 11.12 90.97 10.88 91.26 10.88Z" fill="white"/>
<path d="M97.1404 12.09C97.1304 12.38 96.9003 12.6 96.6003 12.58C96.3303 12.57 96.1204 12.35 96.1104 12.08C96.1104 11.8 96.3503 11.55 96.6303 11.55C96.9103 11.56 97.1404 11.8 97.1404 12.09Z" fill="white"/>
<path d="M86.06 18.3401C86.05 18.5501 85.85 18.7201 85.65 18.7001C85.44 18.6801 85.28 18.4901 85.3 18.2801C85.33 18.0601 85.47 17.9501 85.68 17.9501C85.9 17.9401 86.07 18.1301 86.06 18.3401Z" fill="white"/>
<path d="M86.26 16.39C86.06 16.39 85.86 16.2 85.87 16C85.87 15.8 86.08 15.6 86.27 15.62C86.48 15.64 86.61 15.77 86.63 15.99C86.66 16.19 86.47 16.39 86.26 16.39Z" fill="white"/>
<path d="M85.2001 14.86C85.4201 14.85 85.6001 15.02 85.6001 15.23C85.6001 15.43 85.4501 15.59 85.2601 15.61C85.0401 15.63 84.8501 15.48 84.8401 15.26C84.8201 15.06 84.9801 14.87 85.2001 14.86Z" fill="white"/>
<path d="M87.8004 16.7499C87.8104 16.9599 87.6304 17.1499 87.4204 17.1499C87.2104 17.1599 87.0104 16.9699 87.0204 16.7699C87.0304 16.5599 87.1504 16.4199 87.3704 16.3999C87.5904 16.3699 87.7904 16.5399 87.8004 16.7499Z" fill="white"/>
<path d="M97.0803 17.5599C97.0703 17.7699 96.8703 17.9299 96.6503 17.9099C96.4603 17.8899 96.3003 17.7199 96.3003 17.5399C96.3003 17.3299 96.4903 17.1599 96.7003 17.1599C96.9103 17.1599 97.0903 17.3499 97.0803 17.5599Z" fill="white"/>
<path d="M92.62 14.9599C92.83 14.9499 93.02 15.1299 93.03 15.3299C93.03 15.5299 92.84 15.7099 92.63 15.6999C92.4 15.6899 92.29 15.5599 92.26 15.3499C92.22 15.1599 92.4 14.9699 92.62 14.9599Z" fill="white"/>
<path d="M94.1202 5.8999C94.3502 5.8999 94.5102 6.0799 94.4902 6.3099C94.4702 6.5099 94.3102 6.6599 94.1002 6.6499C93.8702 6.6499 93.7102 6.4699 93.7302 6.2399C93.7602 6.0399 93.9102 5.8999 94.1202 5.8999Z" fill="white"/>
<path d="M68.8302 50.3101C68.8402 50.5301 68.8502 50.7501 68.8702 51.0301C68.6102 50.8801 68.5402 50.6601 68.4502 50.4601C68.5702 50.4101 68.7002 50.3601 68.8302 50.3101Z" fill="#FB3E22"/>
<path d="M62.45 52.75C62.95 53.5 63.41 54.27 63.84 55.06C62.34 55.53 60.83 56.01 59.33 56.48C58.89 56.05 58.67 55.54 58.7 54.92C58.71 54.72 58.71 54.51 58.72 54.31C59.96 53.79 61.2 53.27 62.45 52.75Z" fill="#FB3E22"/>
<path d="M67.0002 74.3601C66.9902 74.6401 66.7302 74.8801 66.4602 74.8601C66.1802 74.8401 65.9502 74.5901 65.9802 74.3001C66.0002 74.0301 66.2102 73.8301 66.4902 73.8301C66.7802 73.8401 67.0102 74.0801 67.0002 74.3601Z" fill="white"/>
<path d="M77.4901 67.3299C77.7601 67.3199 78.0301 67.5699 78.0301 67.8399C78.0301 68.0999 77.8201 68.3299 77.5601 68.3599C77.2701 68.3899 77.0201 68.1799 77.0101 67.8799C76.9801 67.5899 77.2001 67.3399 77.4901 67.3299Z" fill="white"/>
<path d="M65.1204 70.69C64.8304 70.68 64.6104 70.45 64.6204 70.16C64.6304 69.87 64.8704 69.66 65.1704 69.68C65.4404 69.7 65.6504 69.92 65.6504 70.19C65.6504 70.46 65.4004 70.69 65.1204 70.69Z" fill="white"/>
<path d="M77.7404 58.8899C77.7404 59.0999 77.5504 59.2899 77.3404 59.2699C77.1304 59.2499 77.0004 59.1299 76.9804 58.9099C76.9704 58.6999 77.1404 58.5099 77.3504 58.4999C77.5504 58.4899 77.7404 58.6799 77.7404 58.8899Z" fill="white"/>
<path d="M72.5304 72.12C72.7304 72.11 72.9304 72.29 72.9404 72.49C72.9504 72.7 72.7704 72.89 72.5604 72.89C72.3804 72.89 72.2004 72.73 72.1804 72.54C72.1604 72.33 72.3204 72.13 72.5304 72.12Z" fill="white"/>
<path d="M64.8401 72.8101C64.8501 73.0201 64.6701 73.2301 64.4601 73.2101C64.2601 73.1901 64.1101 73.0801 64.0901 72.8601C64.0701 72.6401 64.2301 72.4501 64.4401 72.4401C64.6501 72.4201 64.8301 72.5901 64.8401 72.8101Z" fill="white"/>
<path d="M60.0104 70.4299C60.2104 70.4299 60.3804 70.5799 60.3904 70.7799C60.4104 70.9999 60.2404 71.1799 60.0104 71.1799C59.8104 71.1799 59.6404 71.0299 59.6304 70.8299C59.6104 70.6099 59.7904 70.4299 60.0104 70.4299Z" fill="white"/>
<path d="M112.41 46.4201C111.72 45.3701 111.03 44.3101 110.26 43.1401C111.07 43.4401 111.69 43.8501 112.37 44.3201C112.39 43.3001 112.4 42.3501 112.42 41.3901C116.53 39.8101 120.55 38.0201 124.46 35.9801C127.04 34.6301 129.56 33.1701 132.01 31.5801C131.84 31.7401 131.69 31.9001 131.51 32.0501C128.82 34.3801 125.99 36.5301 123.15 38.6701C122.47 39.1801 121.81 39.7201 121.09 40.1701C120.67 40.1001 120.26 40.1401 119.72 40.1401C119.98 40.3901 120.15 40.5501 120.32 40.7101C120.21 40.8701 120.04 40.9701 119.89 41.0801C117.43 42.9001 114.93 44.6801 112.41 46.4201Z" fill="#0C3E91"/>
<path d="M121.15 42.73C121.11 43.37 120.89 43.98 120.73 44.6C119.8 48.13 118.84 51.66 117.84 55.17C117.74 55.51 117.65 55.84 117.37 56.07C117.25 56.02 117.23 55.92 117.19 55.82C116.12 53.24 114.89 50.74 113.5 48.32C113.44 48.22 113.36 48.12 113.36 47.99C113.88 47.65 114.41 47.32 114.92 46.97C116.91 45.61 118.9 44.25 120.88 42.89C120.96 42.83 121.06 42.78 121.15 42.73Z" fill="#0C3E91"/>
<path d="M95.87 57.16C95.47 56.76 95.17 56.3 94.98 55.77C94.02 53.19 93.06 50.62 92.1 48.04C92.07 47.96 92.06 47.87 92.04 47.79C94.32 47.23 96.59 46.6 98.86 45.98C98.92 46.34 98.96 46.7 99.05 47.05C99.39 48.46 100.26 49.47 101.49 50.2C102.42 50.75 103.44 51.09 104.46 51.43C104.4 51.54 104.3 51.6 104.19 51.67C103 52.45 101.82 53.23 100.63 54.01C100.56 54.06 100.48 54.08 100.4 54.12C100.02 53.81 99.65 53.51 99.22 53.17C99.22 53.81 99.22 54.35 99.22 54.9C99.06 55.11 98.81 55.22 98.6 55.36C97.68 55.96 96.81 56.6 95.87 57.16Z" fill="#0C3E91"/>
<path d="M89.1002 61.7201C87.2102 59.4601 85.3702 57.1601 83.5502 54.8401C83.2502 54.4501 82.9502 54.0501 82.6602 53.6601C82.7902 53.5301 82.9002 53.5701 82.9902 53.5701C84.1502 53.5701 85.3102 53.5801 86.4702 53.5601C86.7702 53.5601 86.9502 53.6301 87.0302 53.9401C87.1202 54.3301 87.2502 54.7001 87.3702 55.0801C87.5502 55.6601 87.4202 56.1701 87.0502 56.6401C86.8302 56.9301 86.5702 57.1801 86.2402 57.5201C89.3002 57.5301 92.2602 57.5301 95.2302 57.5401C95.1702 57.6501 95.0702 57.7201 94.9702 57.7801C93.0902 59.0501 91.2102 60.3201 89.3202 61.5901C89.2502 61.6501 89.1702 61.6801 89.1002 61.7201Z" fill="#0C3E91"/>
<path d="M110.55 47.63C109.93 47.18 109.23 46.88 108.53 46.61C107.76 46.31 106.97 46.05 106.19 45.77C105.75 45.61 105.32 45.43 104.94 45.15C104.65 44.93 104.36 44.71 104.3 44.31C105.81 43.8 107.34 43.32 108.83 42.73C109.84 44.08 110.78 45.48 111.66 46.91C111.29 47.17 110.94 47.43 110.55 47.63Z" fill="#0C3E91"/>
<path d="M106.88 52.3201C107.06 52.4301 107.24 52.5201 107.41 52.6401C107.59 52.7701 107.78 52.8901 107.94 53.0501C108.67 53.7501 108.57 54.4901 107.69 54.9801C107.14 55.2901 106.53 55.4201 105.91 55.5001C104.91 55.6101 103.91 55.6201 102.93 55.3501C102.77 55.3001 102.59 55.2701 102.46 55.1601C103.8 54.2901 105.14 53.4301 106.48 52.5601C106.61 52.4801 106.74 52.4001 106.88 52.3201Z" fill="#0C3E91"/>
<path d="M90.28 43.0799C89.95 42.2099 89.61 41.3399 89.29 40.4599C89.2 40.2099 89.07 40.1199 88.8 40.1199C86.01 40.1299 83.22 40.1299 80.44 40.1299C80.39 40.1299 80.34 40.1399 80.28 40.1499C80.26 40.3199 80.41 40.3799 80.5 40.4699C80.82 40.7899 81.11 41.1299 81.34 41.5199C81.59 41.9599 81.69 42.4299 81.58 42.9199C81.32 43.9999 81.06 45.0699 80.74 46.1299C80.71 46.1499 80.69 46.1699 80.66 46.1899H80.67C80.03 46.2899 79.46 46.5799 78.84 46.7499C78.62 46.8099 78.42 46.9199 78.19 46.9299C77.67 45.9699 77.14 45.0199 76.63 44.0499C74.85 40.6299 73.35 37.0999 72.38 33.3599C71.91 31.5299 71.58 29.6699 71.53 27.7699C71.48 26.2899 71.61 24.8299 72.09 23.4099C73.02 20.6799 75.12 19.1599 78.01 19.1199C79.79 19.0899 81.48 19.5099 83.13 20.1199C85.85 21.1199 88.33 22.5699 90.7 24.2199C94.98 27.1999 98.76 30.7299 102.26 34.5699C103.22 35.6199 104.17 36.6799 105.03 37.7999C103.04 38.5499 101.05 39.3099 99.05 40.0499C96.16 41.1399 93.22 42.1299 90.28 43.0799ZM82.98 25.3799C82.7 25.2599 82.32 25.4199 82.19 25.2099C82.04 24.9599 81.67 24.9099 81.66 24.5599C81.65 24.3099 81.57 24.0599 81.53 23.7999C81.5 24.0299 81.52 24.2699 81.5 24.4999C81.49 24.5999 81.51 24.7499 81.45 24.7999C81.14 25.0299 80.95 25.4699 80.44 25.3899C80.28 25.3599 80.11 25.4299 79.95 25.4499C80.23 25.4699 80.51 25.4699 80.8 25.4899C80.98 25.4999 81.48 25.9399 81.52 26.1199C81.57 26.3799 81.61 26.6399 81.64 26.8399C81.72 26.6799 81.68 26.4399 81.7 26.1999C81.71 26.1099 81.7 25.9599 81.74 25.9599C82.08 25.8599 82.18 25.3499 82.63 25.4499C82.72 25.4699 82.84 25.4099 82.98 25.3799ZM78.46 26.9699C78.68 26.9599 78.85 26.7799 78.82 26.5599C78.79 26.3499 78.67 26.2199 78.45 26.2099C78.24 26.1999 78.06 26.3899 78.06 26.5999C78.06 26.8099 78.24 26.9799 78.46 26.9699ZM76.78 24.1999C76.56 24.1999 76.39 24.3699 76.39 24.5899C76.4 24.7999 76.58 24.9699 76.8 24.9599C77.02 24.9399 77.14 24.8099 77.16 24.5999C77.17 24.3799 77 24.1999 76.78 24.1999Z" fill="#0C3E91"/>
<path d="M90.2803 43.0801C93.2303 42.1301 96.1603 41.1401 99.0703 40.0601C101.07 39.3201 103.05 38.5601 105.05 37.8101C105.73 38.5501 106.31 39.3501 107 40.2301C106.11 40.1401 105.34 40.1501 104.57 40.1401C103.9 40.1301 103.26 40.2501 102.63 40.4701C100.39 41.2601 98.8103 43.3401 98.8803 45.6701C98.8803 45.7701 98.8703 45.8801 98.8603 45.9801C96.5903 46.6001 94.3303 47.2301 92.0403 47.7901C91.5403 46.4801 91.0503 45.1701 90.5503 43.8601C90.4503 43.6101 90.3703 43.3401 90.2803 43.0801Z" fill="#FB3E22"/>
<path d="M123.19 45.0701C124.03 47.1501 124.86 49.2001 125.68 51.2301C125.64 51.3301 125.58 51.3501 125.5 51.3501C124.18 51.3501 122.87 51.3501 121.55 51.3501C121.22 51.3501 121.2 51.3301 121.3 51.0301C121.88 49.1101 122.47 47.2001 123.06 45.2801C123.09 45.2201 123.14 45.1601 123.19 45.0701Z" fill="#0C3E91"/>
<path d="M108.82 42.7301C107.33 43.3201 105.81 43.8001 104.29 44.3101C104.09 43.7601 104.2 43.3501 104.66 43.0001C105.08 42.6701 105.59 42.5301 106.1 42.4701C106.89 42.3801 107.68 42.3701 108.47 42.5401C108.62 42.5701 108.76 42.5801 108.82 42.7301Z" fill="#FB3E22"/>
<path d="M62.4504 52.7499C61.2004 53.2699 59.9604 53.7899 58.7104 54.3199C58.7004 53.4399 58.6904 52.5599 58.6904 51.6699C58.6904 50.1499 58.6904 48.6199 58.6904 47.0999C58.6904 46.9299 58.6904 46.7699 58.6904 46.5999C58.8604 46.6199 58.8804 46.7299 58.9304 46.8099C60.0804 48.7399 61.2404 50.6699 62.3904 52.5999C62.4204 52.6499 62.4304 52.6999 62.4504 52.7499Z" fill="#0C3E91"/>
<path d="M81.9902 50.3299C82.1002 49.6799 82.3402 49.0699 82.5302 48.4399C82.8302 47.4299 83.1502 46.4299 83.4502 45.4199C83.4802 45.3199 83.4902 45.2099 83.6402 45.0999C84.2402 46.5699 84.8502 48.0099 85.4002 49.4799C84.2602 49.7699 83.1202 50.0499 81.9902 50.3299Z" fill="#FB3E22"/>
<path d="M81.9904 50.33C83.1304 50.05 84.2605 49.77 85.4005 49.49C85.6505 50.08 85.8904 50.66 86.1404 51.25C85.7504 51.36 82.4204 51.39 81.7104 51.3C81.7304 50.96 81.8404 50.64 81.9904 50.33Z" fill="#0C3E91"/>
<path d="M80.6504 46.1999C80.6804 46.1799 80.7004 46.1599 80.7304 46.1399C80.7204 46.1799 80.7304 46.2499 80.6504 46.1999Z" fill="#FB3E22"/>
<path d="M82.9802 25.38C82.8402 25.41 82.7202 25.4701 82.6102 25.4501C82.1602 25.3501 82.0602 25.86 81.7202 25.96C81.6902 25.97 81.6902 26.1201 81.6802 26.2001C81.6602 26.4301 81.7002 26.68 81.6202 26.84C81.5902 26.64 81.5502 26.3801 81.5002 26.1201C81.4602 25.9401 80.9602 25.5 80.7802 25.49C80.5002 25.47 80.2102 25.4701 79.9302 25.4501C80.0902 25.4301 80.2602 25.37 80.4202 25.39C80.9302 25.47 81.1202 25.03 81.4302 24.8C81.4902 24.76 81.4802 24.61 81.4802 24.5C81.5002 24.26 81.4802 24.02 81.5102 23.8C81.5602 24.05 81.6302 24.3 81.6402 24.56C81.6502 24.92 82.0202 24.96 82.1702 25.21C82.3202 25.42 82.7002 25.25 82.9802 25.38Z" fill="white"/>
<path d="M78.4601 26.97C78.2401 26.98 78.0601 26.81 78.0601 26.6C78.0601 26.39 78.2401 26.21 78.4501 26.21C78.6701 26.22 78.7901 26.35 78.8201 26.56C78.8501 26.78 78.6801 26.96 78.4601 26.97Z" fill="white"/>
<path d="M76.78 24.2C77 24.2 77.1701 24.37 77.1601 24.59C77.1401 24.8 77.02 24.93 76.8 24.95C76.59 24.97 76.4 24.79 76.39 24.58C76.38 24.38 76.56 24.2 76.78 24.2Z" fill="white"/>
</svg>
