<svg width="196" height="98" viewBox="0 0 196 98" fill="none" xmlns="http://www.w3.org/2000/svg">
<path d="M40.3999 47.7101C40.5799 48.0201 40.8299 48.2601 41.0799 48.5201C42.1599 49.6401 43.3899 50.5801 44.6999 51.4201C47.2199 53.0601 49.9199 54.3401 52.6999 55.4401C56.8299 57.0701 61.0899 58.2701 65.4599 59.1101C67.9799 59.5901 70.5199 59.9501 73.0699 60.1501C73.1599 60.1601 73.2399 60.1701 73.3199 60.1801C73.5999 60.2101 73.5999 60.2201 73.5299 60.5001C73.0999 62.0801 72.6699 63.6501 72.2399 65.2301C71.9299 66.3701 71.6199 67.5201 71.3099 68.6601C71.2299 68.9601 71.2299 68.9601 70.9299 68.9401C63.7999 68.4501 56.9199 66.8701 50.2699 64.2401C47.7699 63.2501 45.3599 62.0901 43.0799 60.6601C41.5599 59.7101 40.1299 58.6601 38.8799 57.3601C38.1499 56.6001 37.5199 55.7701 37.0799 54.8001C36.5999 53.7401 36.5699 52.6601 36.8399 51.5401C37.2199 50.0401 37.6399 48.5501 38.0399 47.0501C38.3099 46.0501 38.5799 45.0501 38.8599 44.0501C38.8799 43.9901 38.9099 43.9301 38.9299 43.8701C38.8899 44.6701 39.0399 45.4401 39.3899 46.1601C39.6699 46.7301 39.9699 47.2601 40.3999 47.7101Z" fill="#0000C8"/>
<path d="M77.9798 45.1301C77.4898 44.4601 76.8898 43.9001 76.2698 43.3601C74.7098 42.0101 72.9798 40.9201 71.1698 39.9401C68.0098 38.2301 64.6898 36.9301 61.2698 35.8401C58.4098 34.9301 55.4998 34.2101 52.5498 33.6601C50.5098 33.2801 48.4598 32.9801 46.3998 32.7901C45.8698 32.7401 45.3398 32.6901 44.8098 32.6401C44.7698 32.5201 44.8198 32.4201 44.8498 32.3201C45.5898 29.5901 46.3298 26.8601 47.0798 24.1301C47.1498 23.8701 47.1498 23.8701 47.4298 23.8901C52.6398 24.2601 57.7398 25.2101 62.7298 26.7201C66.1198 27.7401 69.4098 29.0101 72.5598 30.6301C74.5998 31.6801 76.5498 32.8701 78.2998 34.3601C79.2498 35.1701 80.1098 36.0501 80.7898 37.1101C81.2098 37.7601 81.5198 38.4601 81.6598 39.2301C81.7598 39.8101 81.7198 40.3801 81.5998 40.9501C81.3598 42.1301 80.9998 43.2901 80.6898 44.4501C80.2998 45.8901 79.9098 47.3301 79.5198 48.7801C79.4998 48.8401 79.4798 48.9001 79.4598 48.9601C79.5098 47.4801 78.9098 46.2401 77.9798 45.1301Z" fill="#0095FE"/>
<path d="M113.93 48.75C113.8 48.69 113.69 48.71 113.58 48.71C112.24 48.71 110.91 48.71 109.57 48.71C109.16 48.71 109.24 48.7 109.14 49.04C107.64 54.52 106.13 60 104.63 65.48C103.89 68.19 103.15 70.9 102.4 73.6C102.28 74.03 102.38 74 101.9 74C100.64 74 99.38 74 98.12 74C97.74 74 97.74 74 97.84 73.63C98.95 69.59 100.06 65.56 101.17 61.52C102.52 56.61 103.87 51.7 105.22 46.79C105.65 45.24 106.04 43.67 106.62 42.16C107.16 40.74 107.81 39.37 108.71 38.14C109.64 36.88 110.77 35.86 112.23 35.24C113.56 34.68 114.94 34.5 116.37 34.6C117.27 34.66 118.15 34.85 118.96 35.27C120.09 35.86 120.85 36.75 121.09 38.03C121.35 39.41 120.78 40.69 119.6 41.32C118.77 41.76 117.91 41.84 117.04 41.43C116.03 40.96 115.58 39.94 115.89 38.83C115.95 38.61 116.04 38.41 116.13 38.2C116.19 38.05 116.26 37.91 116.31 37.75C116.47 37.19 116.22 36.74 115.66 36.59C114.97 36.41 114.33 36.55 113.72 36.9C113.17 37.22 112.77 37.68 112.43 38.21C112.12 38.71 111.89 39.25 111.71 39.81C111.05 41.9 110.52 44.02 109.94 46.13C109.87 46.39 109.88 46.4 110.18 46.4C112.14 46.4 114.09 46.4 116.05 46.4C116.94 46.4 117.82 46.4 118.71 46.4C118.78 46.4 118.86 46.4 118.93 46.4C119.07 46.4 119.09 46.47 119.07 46.59C119.06 46.64 119.04 46.69 119.03 46.74C117.85 51.12 116.67 55.5 115.49 59.89C115.41 60.18 115.41 60.18 115.1 60.18C113.8 60.18 112.49 60.18 111.19 60.18C111.14 60.18 111.08 60.18 111.03 60.18C110.9 60.18 110.86 60.12 110.9 60C111.01 59.6 111.12 59.2 111.22 58.79C112.1 55.54 112.97 52.29 113.85 49.05C113.88 48.97 113.9 48.87 113.93 48.75Z" fill="#0000C8"/>
<path d="M84.3501 60.1502C84.4801 59.6702 84.6001 59.1902 84.7301 58.7102C86.3501 52.7502 87.9601 46.8002 89.5801 40.8402C89.6701 40.5202 89.7501 40.2002 89.8401 39.8802C89.9401 39.5202 89.8701 39.5502 90.2901 39.5502C91.6401 39.5502 92.9801 39.5502 94.3301 39.5502C95.3701 39.5502 96.4001 39.5502 97.4401 39.5502C98.6901 39.5602 99.8801 39.8002 100.98 40.4102C102.99 41.5302 103.94 43.5502 103.72 45.7902C103.45 48.4502 102.01 50.3102 99.6901 51.5402C98.3001 52.2702 96.8101 52.5902 95.2401 52.6002C93.9701 52.6102 92.7001 52.6002 91.4301 52.6002C91.0901 52.6002 91.0901 52.6002 91.0001 52.9302C90.3701 55.2402 89.7501 57.5502 89.1201 59.8602C89.1101 59.9002 89.0901 59.9402 89.0901 59.9802C89.0701 60.1702 88.9601 60.2302 88.7801 60.2102C88.7601 60.2102 88.7401 60.2102 88.7201 60.2102C87.3601 60.2102 86.0101 60.2102 84.6501 60.2102C84.5501 60.2002 84.4501 60.2302 84.3501 60.1502ZM91.7601 50.1502C91.8501 50.1602 91.9001 50.1802 91.9601 50.1802C92.4801 50.1802 93.0101 50.1902 93.5301 50.1802C94.3301 50.1602 95.1201 50.0402 95.8801 49.7602C97.8701 49.0302 99.0201 47.3802 98.9901 45.2902C98.9801 44.6902 98.8701 44.1202 98.5801 43.5902C98.0001 42.5302 97.0701 42.0602 95.9001 42.0002C95.3701 41.9702 94.8301 41.9902 94.3001 41.9902C93.9701 41.9902 93.9701 41.9902 93.8901 42.3002C93.3601 44.2602 92.8301 46.2202 92.3001 48.1702C92.1201 48.8102 91.9501 49.4602 91.7601 50.1502Z" fill="#0000C8"/>
<path d="M40.3997 47.71C39.9597 47.26 39.6597 46.73 39.3897 46.17C39.0397 45.45 38.8997 44.68 38.9297 43.88C39.2597 42.12 40.2397 40.8 41.6797 39.8C42.9897 38.88 44.4697 38.34 46.0097 37.95C47.5997 37.55 49.2097 37.34 50.8497 37.23C52.6297 37.11 54.4097 37.11 56.1897 37.19C57.7897 37.26 59.3797 37.4 60.9697 37.6C61.1097 37.62 61.2497 37.63 61.3797 37.64C61.5197 37.65 61.5497 37.71 61.5097 37.85C61.2997 38.58 61.1097 39.31 60.9097 40.04C60.3497 42.12 59.7797 44.2 59.2197 46.28C59.2097 46.32 59.1897 46.36 59.1797 46.4H59.1597L59.1497 46.42C57.4197 46.21 55.6897 46.06 53.9497 45.98C52.1297 45.9 50.2997 45.88 48.4797 46C46.7297 46.11 44.9997 46.32 43.2897 46.73C42.3097 46.97 41.3397 47.29 40.3997 47.71Z" fill="#0095FE"/>
<path d="M59.1701 46.4301L59.1801 46.4101H59.2001C59.9201 46.5301 60.6401 46.5901 61.3601 46.6501C63.4601 46.8401 65.5701 46.9501 67.6901 46.9301C69.9501 46.9101 72.1901 46.7401 74.4001 46.2801C75.5701 46.0401 76.7201 45.7101 77.8101 45.2201C77.8701 45.1901 77.9201 45.1601 77.9801 45.1301C78.9101 46.2401 79.5101 47.4801 79.4501 48.9701C79.1901 50.2901 78.5701 51.4101 77.5901 52.3301C76.6301 53.2301 75.5001 53.8401 74.2801 54.3001C72.8601 54.8501 71.3801 55.1701 69.8801 55.3801C67.3301 55.7401 64.7801 55.7701 62.2101 55.6601C60.5601 55.5901 58.9101 55.4401 57.2701 55.2401C56.7201 55.1801 56.7901 55.2201 56.9201 54.7401C57.6401 52.0901 58.3601 49.4501 59.0801 46.8001C59.1201 46.6801 59.1401 46.5501 59.1701 46.4301Z" fill="#0000C8"/>
<path d="M142.68 56.87C142.94 57.51 143.18 58.13 143.44 58.76C143.51 58.92 143.4 58.99 143.29 59.07C142.59 59.55 141.83 59.92 141.02 60.16C139.07 60.75 137.12 60.75 135.2 60.03C133.09 59.25 131.88 57.69 131.53 55.48C131.12 52.88 131.89 50.62 133.59 48.66C134.55 47.56 135.72 46.75 137.13 46.32C138.72 45.84 140.3 45.92 141.83 46.56C143.46 47.24 144.38 48.51 144.73 50.22C144.95 51.28 144.87 52.32 144.63 53.36C144.56 53.65 144.56 53.65 144.24 53.65C141.56 53.65 138.88 53.65 136.2 53.65C136.11 53.65 136.03 53.65 135.94 53.65C135.62 53.65 135.63 53.65 135.62 53.97C135.61 54.47 135.65 54.97 135.74 55.47C136.06 57.09 137.13 58.04 138.78 58.12C140.01 58.18 141.14 57.81 142.18 57.16C142.32 57.07 142.47 56.97 142.61 56.88C142.62 56.88 142.63 56.88 142.68 56.87ZM136.01 51.57C136.04 51.58 136.07 51.59 136.1 51.59C137.67 51.59 139.24 51.59 140.81 51.59C141.02 51.59 141.04 51.57 141.05 51.34C141.09 50.76 141.05 50.19 140.88 49.63C140.61 48.71 139.9 48.2 138.82 48.31C138.27 48.37 137.8 48.62 137.4 49C136.68 49.67 136.27 50.52 135.99 51.44C135.99 51.48 135.98 51.52 136.01 51.57Z" fill="#0000C8"/>
<path d="M125.95 48.7C124.06 48.7 122.17 48.7 120.3 48.7C120.23 48.59 120.28 48.51 120.3 48.43C120.45 47.84 120.61 47.25 120.75 46.66C120.79 46.49 120.86 46.4 121.05 46.42C121.23 46.44 121.41 46.42 121.59 46.42C125.19 46.42 128.79 46.42 132.39 46.42C132.51 46.42 132.64 46.42 132.85 46.42C132.22 47.26 131.61 48.01 131.02 48.77C130.43 49.53 129.83 50.28 129.23 51.04C128.63 51.8 128.03 52.57 127.43 53.33C126.83 54.09 126.24 54.84 125.64 55.6C125.04 56.36 124.44 57.12 123.8 57.94C126.02 57.94 128.16 57.94 130.28 57.94C130.35 58.06 130.3 58.14 130.28 58.22C130.13 58.8 129.98 59.38 129.83 59.96C129.76 60.21 129.76 60.22 129.48 60.22C128.42 60.22 127.36 60.22 126.31 60.22C123.35 60.22 120.39 60.22 117.43 60.22C117.32 60.22 117.2 60.25 117.05 60.17C120.04 56.37 123.01 52.58 125.99 48.79C125.98 48.75 125.97 48.73 125.95 48.7Z" fill="#0000C8"/>
<path d="M152.12 49.1501C152.26 49.0501 152.32 48.9101 152.41 48.8001C153.03 47.9701 153.74 47.2401 154.66 46.7401C155.53 46.2701 156.45 46.0501 157.44 46.2801C158.76 46.5901 159.52 47.7901 159.26 49.1201C159.16 49.6201 158.96 50.0801 158.61 50.4601C158.03 51.0901 157.31 51.3301 156.47 51.1701C156.07 51.0901 155.76 50.8901 155.52 50.5701C155.36 50.3601 155.23 50.1201 155.11 49.8801C155.02 49.7101 154.94 49.5401 154.83 49.3801C154.56 49.0001 154.22 48.9101 153.79 49.1001C153.53 49.2101 153.32 49.3901 153.12 49.5801C152.73 49.9501 152.42 50.3801 152.14 50.8401C151.43 51.9701 150.97 53.2101 150.63 54.5001C150.15 56.3201 149.65 58.1301 149.16 59.9401C149.09 60.2101 149.08 60.2101 148.82 60.2101C147.48 60.2101 146.15 60.2101 144.81 60.2101C144.73 60.2101 144.64 60.2301 144.56 60.1701C144.54 60.0501 144.59 59.9401 144.62 59.8301C145.65 56.0201 146.68 52.2001 147.71 48.3901C147.86 47.8201 148.02 47.2601 148.17 46.6901C148.24 46.4401 148.24 46.4301 148.49 46.4301C149.83 46.4301 151.16 46.4301 152.5 46.4301C152.79 46.4301 152.8 46.4501 152.72 46.7201C152.54 47.4201 152.35 48.1201 152.16 48.8301C152.13 48.9201 152.08 49.0201 152.12 49.1501Z" fill="#0000C8"/>
</svg>
