<svg width="196" height="98" viewBox="0 0 196 98" fill="none" xmlns="http://www.w3.org/2000/svg">
<path d="M109.27 78.1998C108.07 77.6098 106.73 77.7798 105.47 77.4398C103.48 76.9098 101.46 76.5198 99.4501 76.0698C99.6401 75.6898 100.37 75.4998 100.12 75.0598C99.9101 74.6898 99.3401 74.4998 98.7701 74.5298C96.9401 74.5998 95.1201 74.5998 93.6001 73.3198C93.3301 73.0898 93.0401 72.9698 92.6601 73.2598C93.2501 73.7598 93.8001 74.2298 94.3601 74.6998C92.2501 74.2998 90.1501 73.8798 88.0401 73.4998C85.1601 72.9898 82.3201 73.4698 79.4901 73.9098C75.6901 74.4898 71.9001 75.2098 68.2701 76.5298C68.1101 76.5898 67.9601 76.6698 67.7901 76.6998C67.2001 76.8098 66.7301 77.6198 66.1501 77.2998C65.2401 76.7898 64.4201 76.0898 63.6301 75.3998C63.2101 75.0298 63.7101 74.7998 63.9501 74.6298C64.8901 73.9798 65.9801 73.6598 67.0501 73.3298C70.9701 72.1298 74.9701 71.2998 79.2501 70.7398C78.6101 69.8198 78.0301 68.9698 77.4201 68.1498C76.5801 66.9998 76.5201 64.7598 77.3201 63.5298C77.4601 63.3098 77.7201 63.1398 77.6901 62.8298C77.8701 62.5198 78.1801 62.2098 78.4901 62.3598C78.8401 62.5298 78.7201 63.0298 78.7801 63.3898C78.2501 63.0698 78.1201 63.5898 77.9701 63.8498C77.2501 65.0598 76.9801 66.6898 78.9801 68.4798C79.2101 67.1798 79.6501 65.9598 79.5101 64.6598C79.8301 65.1398 80.1601 65.6298 80.4801 66.1098C80.2101 67.2998 79.9801 68.4998 79.6501 69.6698C79.4301 70.4498 79.5101 70.7698 80.4301 70.6098C82.5801 70.2598 84.7601 70.1898 86.9401 70.1498C87.6301 70.3198 88.3101 70.4898 89.0001 70.6598C89.1601 70.7398 89.3301 70.8098 89.4901 70.8798C89.6001 70.9898 89.7001 71.0998 89.8101 71.2198C89.8101 71.3498 89.8701 71.4298 90.0001 71.4398C90.3601 71.9898 90.9401 72.1198 91.5501 72.1898C91.0801 71.8898 90.6001 71.5998 90.1301 71.2998C90.0301 71.2198 89.9501 71.0498 89.8001 71.2398C90.0201 70.9698 89.8101 70.8898 89.6101 70.7998C89.4801 70.5098 89.2901 70.2798 88.9801 70.1798L89.0001 70.1998C88.9901 70.0498 88.9201 69.9798 88.7701 69.9698L88.7901 69.9898C88.7101 69.7198 88.5501 69.5298 88.2501 69.4898C87.3301 68.6998 86.3801 67.8998 86.0101 66.6898C85.7301 65.7798 85.0701 65.1998 84.4501 64.5698C84.2901 64.4098 84.0701 64.2698 84.0701 63.9998C84.2301 64.0398 84.3901 64.0798 84.5501 64.1398C84.7901 64.2298 84.9901 64.5898 85.2601 64.3698C85.5201 64.1598 85.6001 63.7998 85.6001 63.4498C85.6001 63.1498 85.4201 62.9498 85.2201 62.7698C84.3801 62.0098 83.4601 61.3998 82.2601 61.4398C82.0401 61.1098 81.6101 60.8298 81.9801 60.3398C83.2201 60.6298 84.6001 60.7198 85.4201 61.8098C86.3401 63.0298 87.6401 63.7298 88.7601 64.6698C88.9901 64.8998 88.8701 65.3398 89.3101 65.5798C89.2901 65.0898 89.2101 64.7598 88.8801 64.5298C88.7901 64.3898 88.6001 64.1998 88.6401 64.1298C88.7801 63.8598 89.0601 64.0198 89.2701 64.0498C91.3701 64.4098 93.4601 64.7898 95.5501 65.1698C95.5401 66.0898 95.5101 66.9998 95.5501 67.9198C95.5801 68.6798 95.2901 68.8398 94.5801 68.6998C93.7001 68.5298 92.8701 68.0298 91.8101 68.2198C92.3001 68.8398 92.6601 69.4298 92.8901 70.0998C92.6901 70.5098 92.9501 70.5398 93.2501 70.5398C93.7801 70.5398 94.3101 70.5398 94.8401 70.5398C95.5501 70.5798 96.2201 70.7198 96.8301 71.1398C97.7001 71.7298 98.6601 71.7098 99.6601 71.5098C100.37 71.3698 101.13 71.3598 101.79 71.6798C102.41 71.9798 102.89 71.8598 103.35 71.4598C103.64 71.2098 103.96 71.0598 104.3 70.8998C106.16 70.0198 108.22 70.4498 110.14 69.9998C109.24 72.4498 107.44 73.9098 105.04 74.7498C105.4 74.6498 105.8 74.6298 106.1 74.4498C106.97 73.9098 107.85 73.8398 108.83 74.0698C112.91 75.0398 116.88 74.3298 120.86 73.3398C124.46 72.4498 128.03 71.3898 131.7 70.7798C136.52 69.9698 141.29 70.3798 146.04 71.2898C149.96 72.0398 153.85 72.8798 157.55 74.4298C158.25 74.7198 158.89 75.0898 159.5 75.5098C159.5 75.6498 159.5 75.7798 159.5 75.9198C159.08 75.7998 158.66 75.6698 158.24 75.5598C153.75 74.3898 149.2 73.5198 144.55 73.2998C140.66 73.1198 136.79 73.2698 132.98 74.2498C128.63 75.3698 124.31 76.6398 119.89 77.4698C118.61 77.7098 117.27 77.6498 116.04 78.1698C113.78 78.1998 111.52 78.1998 109.27 78.1998ZM108.36 71.3798C106.51 70.7498 105.11 71.3598 103.75 72.2998C103.12 72.7398 103.35 73.1098 103.8 73.3498C104.32 73.6298 104.89 73.7998 105.55 73.6398C106.81 73.3198 107.46 72.3398 108.36 71.3798ZM98.1701 73.7598C97.2901 72.0998 96.0201 71.4198 94.3901 71.3398C94.1001 71.3298 93.7001 71.0998 93.5301 71.3798C93.3201 71.7498 93.7001 72.0698 93.9101 72.3498C94.9701 73.7898 96.5601 73.5798 98.1701 73.7598ZM98.5701 72.4898C99.6901 74.0798 100.75 74.5798 101.94 74.1198C102.22 74.0098 102.74 74.0498 102.64 73.5698C102.57 73.1998 102.45 72.7798 101.95 72.6498C100.86 72.3598 99.7701 72.1098 98.5701 72.4898ZM88.7701 68.7498C88.7001 67.1998 88.3801 65.8798 87.4101 64.7598C87.1601 64.4798 86.7901 64.1898 86.4501 64.3698C86.0701 64.5698 86.2301 65.0498 86.3201 65.3898C86.6801 66.7698 87.4301 67.8898 88.7701 68.7498ZM89.8201 68.1798C89.4401 70.0198 90.1001 70.9298 92.4001 71.6898C91.9901 69.6498 91.4001 68.8498 89.8201 68.1798Z" fill="#CE0B2A"/>
<path d="M92.6999 36.4299C92.5199 36.2899 92.2299 36.1799 92.1699 35.9899C91.8299 34.9599 91.0699 34.6599 90.0799 34.6299C89.8699 34.6199 89.53 34.4599 89.48 34.2999C89.11 32.9999 88.1 32.1299 87.37 31.0699C87.16 30.7699 87.0999 30.3799 87.1099 29.9899C87.1299 29.2299 87.2899 28.4499 86.3599 27.9899C85.9599 27.7899 86.0999 27.2799 86.3299 26.8999C87.5499 24.8599 88.6899 22.7399 91.0099 21.6899C91.2799 21.6899 91.5599 21.6899 91.8299 21.6899C92.8999 21.9399 93.9099 22.6299 95.0899 22.1199C95.4699 21.9599 95.6799 22.2599 95.9699 22.4399C96.2799 22.6299 96.4999 23.0599 96.9699 22.9299L96.9599 22.8999C97.1099 23.4399 97.5399 23.7399 97.9499 24.0499C98.0199 24.2599 98.0799 24.4799 98.1499 24.6899C98.3699 25.5199 98.3099 26.3199 97.87 27.0799C97.36 27.5499 96.9599 28.1499 96.3199 28.4799C97.1299 28.3999 97.5399 27.7799 97.9999 27.2199C99.0799 26.9199 100.14 26.5199 101.29 26.5699C101.77 27.2099 101.81 27.9099 101.52 28.6399C99.4899 28.9299 97.4599 29.2199 95.4299 29.5099C94.6999 28.8599 94.4799 27.9699 94.7699 27.1199C95.2599 25.6499 95.0099 24.5199 93.7099 23.6499C92.0699 22.2399 90.4699 22.4099 89.4299 24.2499C90.7199 23.6599 91.8899 23.8499 93.0599 24.2499C92.8499 24.5599 92.6399 24.8599 92.4299 25.1699C91.7899 25.5699 91.0499 25.8899 90.5199 26.4099C90.0699 26.8599 90.2299 27.5799 90.3899 28.1899C90.4299 28.3499 90.4799 28.3699 90.6199 28.2099C90.9099 27.8699 91.37 28.0499 91.73 27.9299C91.85 29.0099 92.1999 30.0299 92.6499 31.0099C92.4299 31.0499 92.1999 31.0799 91.9499 31.1199C93.1599 32.6899 94.89 33.3499 96.55 34.1299C96.97 34.2399 97.39 34.3399 97.8 34.4499C98.49 35.1699 99.0699 36.0299 100.18 36.1699C100.37 35.6899 99.7999 35.9199 99.7399 35.6799C99.7699 35.3699 99.7999 35.0699 99.8399 34.7599C112.15 31.4499 124.18 32.6899 136.05 36.7899C135.64 37.0999 135.24 37.0299 134.82 36.9399C127.62 35.3699 120.36 34.6399 113 35.4099C112.22 35.4899 111.46 35.6799 110.69 35.8299C109.15 35.5799 107.75 36.4599 106.18 36.3099C104.41 36.1399 102.61 36.2699 100.7 36.2699C101.41 37.3699 102.56 38.0999 102.32 39.4999C102.89 40.3199 103.6 41.0499 103.37 42.2199C103.27 42.7099 103.71 42.7099 104.13 42.6199C107.09 41.9599 110.05 41.3099 113.06 40.8799C118.26 40.1299 123.41 40.5899 128.54 41.4299C132.21 42.0299 135.83 42.8099 139.36 44.0199C139.9 44.2099 140.42 44.4299 140.97 45.0599C138.93 44.6699 137.12 44.3099 135.3 43.9899C127.05 42.5399 118.83 42.3599 110.65 44.4999C108.48 45.0699 106.26 45.4699 104.06 45.9099C103.62 45.9999 103.1 46.4299 102.67 45.7499C102.57 45.5799 102.44 45.9599 102.32 46.0899C101.66 46.8199 101.01 47.5499 99.8799 47.4399C99.8599 45.8799 99.8399 44.3099 99.8199 42.7399C99.7999 41.4099 99.5799 40.1899 98.1499 39.5999C97.8499 39.4699 97.58 39.2499 97.3 39.0699C97.14 38.9099 96.99 38.7199 96.73 38.8899L96.7499 38.9099C96.8399 38.6699 96.6599 38.6999 96.5199 38.6799L96.5399 38.6999C96.3099 38.4199 96.1799 38.0099 95.6999 38.0699L95.7199 38.0899C95.7899 37.8699 95.7099 37.7999 95.4899 37.8599L95.5099 37.8799C95.53 37.3899 95.24 37.3599 94.87 37.4499L94.8999 37.4699C94.6799 37.0399 94.2599 37.1099 93.8799 37.0799C93.5099 36.8599 93.0999 36.6499 92.6999 36.4299ZM100.79 46.1899C102.36 45.6999 103.3 42.8499 102.18 40.9799C101.07 42.5599 100.28 44.1999 100.79 46.1899ZM94.7799 23.2299C95.9499 24.6199 95.9299 24.6199 95.9599 25.8399C95.9699 26.3299 95.79 26.7699 95.6899 27.2299C95.65 27.4299 95.56 27.6599 95.73 27.8099C95.95 28.0099 96.1499 27.7799 96.3599 27.6999C97.1499 27.3899 97.2599 26.6399 97.4399 25.9699C97.8499 24.4599 96.2799 22.8199 94.7799 23.2299ZM98.4199 38.6599C98.2999 37.7299 98.22 36.8599 98.05 35.9999C97.91 35.2799 97.2499 35.1499 96.6499 35.0099C96.2799 34.9199 96.0799 35.0999 95.9299 35.4099C95.6699 35.9799 95.6499 36.4999 96.0699 37.0199C96.6699 37.7799 97.3599 38.3999 98.4199 38.6599ZM94.4499 36.4499C94.7499 36.4899 94.7999 36.2899 94.8399 36.0799C94.8999 35.7499 94.92 35.3899 95.05 35.0899C95.2 34.7499 95.2299 34.5099 94.8299 34.3699C94.0599 34.0899 93.4599 33.4099 92.5699 33.4699C92.4999 33.4799 92.4299 33.6899 92.3699 33.8099C91.9 34.7999 93.2499 36.4899 94.4499 36.4499ZM100.53 41.5399C102.2 39.7699 101.54 37.6299 99.4699 36.9499C99.2099 38.6099 100.32 39.9299 100.53 41.5399ZM90.2699 30.5799C89.4499 31.3999 89.4099 33.0099 90.2399 33.6599C90.4999 33.8699 91.0399 34.3299 91.3599 33.7599C91.7599 33.0599 92.2799 32.2799 91.1999 31.6099C90.8299 31.3599 90.5799 30.9299 90.2699 30.5799ZM88.7199 31.2499C88.8199 30.8099 88.9999 30.4099 89.3199 30.1199C90.0699 29.4399 89.8399 28.6799 89.5699 27.8899C89.4499 27.5199 89.2899 27.5199 88.9899 27.7299C87.7399 28.5899 87.4299 30.4099 88.7199 31.2499ZM90.9899 25.0199C88.9899 24.8699 86.76 26.3599 87.41 27.8299C88.6 27.0199 89.4099 25.7699 90.9899 25.0199Z" fill="#CE0B2A"/>
<path d="M36.5 28.8599C39.56 27.3399 42.89 26.7999 46.2 26.2099C50.26 25.4899 54.36 24.9999 58.49 24.8299C61.13 24.7299 63.73 25.1199 66.33 25.4899C71.87 26.2599 77.3 27.6199 82.85 28.3199C83.96 28.4599 85.09 28.5799 86.21 28.5899C86.8 28.5999 86.94 28.8499 86.92 29.3099C86.89 29.9199 86.88 30.5099 87.09 31.1199C87.34 31.8499 86.65 31.5799 86.4 31.5899C84.28 31.6499 82.18 31.5099 80.07 31.2399C75.64 30.6599 71.29 29.6399 66.94 28.6599C61.37 27.3999 55.81 27.2599 50.19 28.3199C47.14 28.8899 44.01 29.1699 41.14 30.3399C39.54 30.9999 38.47 30.5799 37.29 29.7099C37.05 29.5299 36.84 29.2799 36.51 29.2699C36.5 29.1299 36.5 28.9999 36.5 28.8599Z" fill="#CE0B2A"/>
<path d="M79.1098 55.9799C83.3098 56.1699 87.3998 57.0699 91.5098 57.8299C92.1498 57.9499 92.7798 58.0699 93.4098 58.1899C93.5798 58.4499 93.7698 58.6799 94.0798 58.7599C94.0898 58.8899 94.1698 58.9499 94.2998 58.9499C94.8798 59.3499 94.3598 60.0499 94.6898 60.6599C94.9998 59.1699 94.9998 59.1699 94.2798 58.9699C94.4698 58.8099 94.2898 58.7399 94.1998 58.6499C94.0198 58.4199 93.7998 58.2099 93.5198 58.1099C92.8898 57.0799 91.9998 56.1299 92.8398 54.7699C93.0098 54.4899 92.6798 54.1199 92.3798 54.1199C89.2298 54.0499 86.2398 53.0699 83.1798 52.5099C79.0598 51.7599 74.9798 50.5999 70.7398 50.8299C65.4498 51.1199 60.2298 51.9499 55.0998 53.3099C54.8998 53.3599 54.6798 53.3899 54.5198 53.4999C52.9098 54.6799 51.7298 53.6099 50.4898 52.7599C49.8598 52.3299 50.0398 52.0499 50.6098 51.7799C52.0998 51.0699 53.6898 50.6899 55.2898 50.3599C61.0398 49.1799 66.8498 48.3399 72.7298 48.2199C75.6698 48.1599 78.5798 48.6299 81.4798 49.0999C84.4398 49.5899 87.3998 50.0699 90.3598 50.5899C90.8898 50.6799 91.6898 50.5199 91.7098 51.4899C92.4998 49.8699 92.7298 47.9799 94.4398 46.9699C94.5098 46.8799 94.6498 46.7999 94.4798 46.6999C94.4598 46.6899 94.3698 46.7999 94.3098 46.8499C91.2498 47.0199 88.2498 46.5099 85.2698 45.9599C80.0798 44.9899 74.9398 43.7199 69.6998 43.0399C67.3798 42.7399 65.0598 42.9699 62.7598 43.2299C58.8998 43.6699 55.0598 44.2899 51.2898 45.2599C50.7598 45.3999 50.2398 45.5499 49.7198 45.7199C49.2098 45.8799 48.6898 46.4099 48.2198 46.1999C47.3298 45.7999 46.5198 45.1999 45.7198 44.6299C45.2898 44.3299 45.7498 44.1799 45.9298 44.0599C46.8398 43.4999 47.8698 43.2299 48.8898 42.9799C55.3298 41.4099 61.8498 40.3499 68.4998 40.3399C72.6398 40.3299 76.7098 41.0899 80.7698 41.8299C84.9298 42.5899 89.0698 43.4499 93.2798 43.8799C94.2298 43.9799 95.1898 43.9299 96.1398 43.9499C96.1798 46.4999 96.2898 49.0699 95.8398 51.5799C95.5398 53.2599 95.9798 54.7899 96.6398 56.1499C97.2698 57.4499 98.2498 58.6199 98.8598 59.9699C99.5098 60.2199 100.17 60.4599 100.75 60.8499C100.85 60.9199 100.96 60.9899 101.06 61.0599C101.08 61.0099 101.14 60.9099 101.13 60.8999C101.05 60.8499 100.96 60.8099 100.88 60.7699C100.72 60.3599 100.25 60.3499 99.9898 60.0699C100.01 59.8399 100.04 59.6099 100.06 59.3799C103.27 60.0799 106.44 59.6499 109.6 59.0299C110.3 58.8899 111 58.7399 111.7 58.5999C111.37 58.9099 111.04 59.2099 110.61 59.6099C111.23 59.7399 111.71 59.8599 112.19 59.9499C114.08 60.2999 114.13 60.4299 112.87 61.9899C112.85 62.0099 112.81 62.0199 112.78 62.0399C110.54 62.3099 108.31 62.5699 105.91 62.8599C106.69 63.4999 107.31 63.8899 108.27 63.8699C109.16 63.8499 110.25 63.7399 110.72 64.8899C109.8 66.0899 108.55 66.7999 107.18 67.3399C105.18 68.1299 103.02 68.2699 100.95 68.7399C100.3 68.8899 99.9998 68.6699 100.06 67.9599C100.11 67.3499 100.07 66.7399 100.08 66.1299C102.24 66.4899 104.4 66.8499 106.56 67.2099C104.5 65.6399 102.18 64.8099 99.6898 64.4499C98.9298 63.1499 97.6098 62.6299 96.3298 62.0299C95.9998 61.8799 95.8098 61.7199 95.6698 62.1799C91.9798 61.4499 88.2998 60.6799 84.6498 59.7499C85.1098 59.4799 84.9798 59.3399 84.5798 59.1099C82.7298 58.0999 80.8598 57.1499 79.1098 55.9799ZM97.2998 59.2299C97.3698 59.3199 97.4498 59.3599 97.5298 59.2499C97.5298 59.2399 97.4498 59.1699 97.4098 59.1299C96.7198 57.6999 95.8398 56.4499 94.3198 55.7999C94.0698 55.6899 93.8198 55.3499 93.5198 55.6499C93.2598 55.9099 93.4298 56.2099 93.5598 56.4899C94.2998 58.0999 95.5698 58.9699 97.2998 59.2299ZM105.92 64.1299C105.59 63.8699 105.48 63.7799 105.37 63.7099C103.65 62.6099 101.74 63.1099 99.8898 63.0699C99.8298 63.0699 99.6998 63.1899 99.7098 63.2499C99.7198 63.4699 99.8598 63.5999 100.07 63.6899C101.89 64.5299 103.77 64.5399 105.92 64.1299ZM95.3298 55.1599C95.1598 53.6599 94.6998 52.3199 93.6198 51.2499C93.4398 51.0699 93.3498 50.6899 93.0198 50.8099C92.6198 50.9499 92.6598 51.3599 92.6998 51.6799C92.9398 53.2899 93.4698 54.6899 95.3298 55.1599ZM100.8 61.8899C99.5898 60.6399 97.8598 60.8499 96.4598 60.2199C96.2698 60.1299 95.9498 59.9699 95.7998 60.2199C95.5998 60.5399 95.9498 60.6799 96.1498 60.8399C97.4998 61.9299 98.9798 62.5299 100.8 61.8899ZM109.56 65.0899C107.88 64.1899 106.51 65.4799 104.75 65.3299C105.72 65.8399 106.56 65.9399 107.21 66.4699C107.33 66.5699 107.64 66.5599 107.78 66.4799C108.39 66.0899 109.1 65.7999 109.56 65.0899ZM95.2998 47.4599C95.0698 47.6299 94.9398 47.7199 94.8098 47.8199C93.3198 48.9499 93.2598 49.5199 94.5098 50.8399C94.6598 50.9999 94.7898 51.2999 95.0698 51.1599C95.2998 51.0399 95.2998 50.7599 95.2998 50.5199C95.3098 49.5399 95.2998 48.5599 95.2998 47.4599ZM95.4698 46.1299C95.3998 46.0599 95.3298 45.9799 95.2498 45.9099C95.0498 46.1299 94.8398 46.3399 94.6398 46.5599C94.6798 46.5899 94.7198 46.6199 94.7598 46.6499C94.9898 46.4699 95.2298 46.2999 95.4698 46.1299Z" fill="#CE0B2A"/>
<path d="M100.07 66.16C100.07 66.77 100.1 67.38 100.05 67.99C99.9898 68.7 100.29 68.91 100.94 68.77C103.01 68.3 105.17 68.16 107.17 67.37C108.54 66.83 109.79 66.11 110.71 64.92C111.61 64.13 112.42 63.26 112.77 62.07C112.8 62.05 112.84 62.05 112.86 62.02C114.12 60.47 114.07 60.33 112.18 59.98C111.7 59.89 111.22 59.77 110.6 59.64C111.03 59.24 111.36 58.93 111.69 58.63C112.64 58.42 113.39 57.82 114.21 57.36C115.81 56.47 117.4 55.57 118.98 54.66C119.43 54.4 119.65 54.39 119.62 55C119.59 55.61 119.58 56.22 119.56 56.82C119.57 58 119.58 59.18 119.59 60.37C119.59 61.54 119.59 62.71 119.59 63.88C119.51 63.9 119.43 63.91 119.35 63.93C118.7 63.16 118.05 62.4 117.36 61.58C116.32 63.26 115.51 65.02 114.31 66.54C113.38 67.56 112.24 68.33 111.14 69.14C110.8 69.39 110.35 69.54 110.23 70.02C110.2 70.04 110.16 70.04 110.13 70.04C108.21 70.49 106.15 70.06 104.29 70.94C103.95 71.1 103.63 71.25 103.34 71.5C102.88 71.9 102.4 72.02 101.78 71.72C101.12 71.4 100.37 71.41 99.6498 71.55C98.6498 71.75 97.6898 71.76 96.8198 71.18C96.2098 70.77 95.5398 70.62 94.8298 70.58C94.2798 69.99 93.4798 70.52 92.8798 70.14C92.6498 69.47 92.2898 68.88 91.7998 68.26C92.8598 68.07 93.6898 68.57 94.5698 68.74C95.2898 68.88 95.5798 68.72 95.5398 67.96C95.4998 67.05 95.5398 66.13 95.5398 65.21C95.6798 64.21 95.7498 63.21 95.6498 62.2C95.7898 61.75 95.9798 61.9 96.3098 62.06C97.5898 62.66 98.9098 63.18 99.6698 64.48C100.29 64.92 99.9498 65.59 100.07 66.16Z" fill="#351857"/>
<path d="M100.02 51.79C103.58 51.64 107.02 50.72 110.5 50.07C114.85 49.26 119.17 48.2 123.65 48.35C127.27 48.46 130.84 48.98 134.41 49.57C137.68 50.11 140.9 50.79 144 51.97C144.46 52.15 144.97 52.25 145.28 52.9C143.09 52.48 141.03 52.05 138.96 51.7C133.04 50.69 127.08 50.3 121.13 51.2C117.33 51.77 113.6 52.76 109.83 53.53C106.59 54.2 103.32 54.69 100.01 54.83C100.02 53.81 100.02 52.8 100.02 51.79Z" fill="#CE0B2A"/>
<path d="M100.02 51.79C100.02 52.8 100.02 53.82 100.02 54.83C100.03 56.35 100.04 57.88 100.05 59.4C100.03 59.63 100 59.86 99.9801 60.09C99.6201 59.9 99.2301 59.93 98.8401 59.98C98.2301 58.62 97.2501 57.46 96.6201 56.16C95.9601 54.8 95.5201 53.27 95.8201 51.59C96.2701 49.08 96.1601 46.51 96.1201 43.96C96.1801 42.71 96.2301 41.45 96.3201 40.2C96.3601 39.68 96.2001 39.49 95.6501 39.5C93.3001 39.53 90.9501 39.51 88.6101 39.51C88.3801 39.51 88.1601 39.54 87.9301 39.64C86.3101 40.32 85.3401 40.05 84.3301 38.67C84.0301 37.43 84.4701 36.5 85.5201 35.83C86.9001 35.39 88.1701 36.22 89.5301 36.2C90.5901 36.18 91.6801 35.96 92.7101 36.44C93.1101 36.65 93.5101 36.87 93.9201 37.08C94.1501 37.49 94.5501 37.47 94.9401 37.47L94.9101 37.45C95.1201 37.59 95.3401 37.73 95.5501 37.88L95.5301 37.86C95.5301 38.01 95.6001 38.09 95.7601 38.09L95.7401 38.07C95.9701 38.34 96.1001 38.76 96.5801 38.7L96.5601 38.68C96.4501 38.94 96.6601 38.89 96.7901 38.91L96.7701 38.89C96.8801 39.21 97.1201 39.11 97.3401 39.07C97.6201 39.25 97.8801 39.47 98.1901 39.6C99.6201 40.19 99.8401 41.41 99.8601 42.74C99.8801 44.31 99.9001 45.87 99.9201 47.44C99.8201 48.89 99.9201 50.34 100.02 51.79Z" fill="#351857"/>
<path d="M110.23 70.0098C110.35 69.5298 110.81 69.3798 111.14 69.1298C112.25 68.3198 113.38 67.5398 114.31 66.5298C116.97 65.9598 119.65 65.4598 122.3 64.8098C128.57 63.2698 134.85 63.2398 141.18 64.4098C144.8 65.0798 148.42 65.7398 151.91 66.9598C152.78 67.2698 153.7 67.5198 154.55 68.3298C153.54 68.4198 152.79 68.1098 152.03 67.9298C146.25 66.5798 140.4 65.9598 134.46 66.1598C130.44 66.2998 126.58 67.3298 122.7 68.2698C118.88 69.1898 115.04 69.9398 111.13 70.3198C110.81 70.3398 110.36 70.6098 110.23 70.0098Z" fill="#CE0B2A"/>
<path d="M92.6602 31.0299C92.2102 30.0499 91.8602 29.0299 91.7402 27.9499C91.8502 26.9999 92.0802 26.0699 92.4302 25.1799C92.6402 24.8699 92.8502 24.5699 93.0602 24.2599C93.2802 24.0599 93.4902 23.8599 93.7102 23.6599C95.0002 24.5299 95.2602 25.6599 94.7702 27.1299C94.4802 27.9799 94.7002 28.8599 95.4302 29.5199C96.2602 30.7599 97.4602 31.1899 98.8602 30.9499C100.18 30.7299 101.19 30.0599 101.52 28.6499C101.81 27.9199 101.77 27.2299 101.29 26.5799C100.72 25.1699 99.4502 24.8999 98.1502 24.6999C98.0802 24.4899 98.0202 24.2699 97.9502 24.0599C97.8402 23.4899 97.5202 23.0999 96.9602 22.9099L96.9702 22.9399C96.8002 22.7399 96.6202 22.5399 96.4502 22.3399C98.7202 21.3099 102.1 22.4099 103.74 24.6999C103.92 24.9499 104.1 25.1899 104.28 25.4299C104.65 26.3999 104.82 27.4099 104.78 28.4599C104.41 30.8999 102.99 32.5299 100.74 33.3499C99.9102 33.6499 99.6802 34.0099 99.8402 34.7799C99.8102 35.0899 99.7802 35.3899 99.7402 35.6999C99.2502 35.5699 98.8202 35.3999 98.6102 34.8699C98.4702 34.5099 98.1402 34.4599 97.8002 34.4699C97.3802 34.3599 96.9602 34.2599 96.5502 34.1499C96.4602 33.8599 96.4202 33.5499 96.0602 33.4499C94.6302 33.0699 93.6402 32.0599 92.6602 31.0299Z" fill="#351857"/>
<path d="M119.6 60.3599C119.59 59.1799 119.58 57.9899 119.57 56.8099C123.62 56.0899 127.69 55.7899 131.79 56.2799C137.11 56.9099 142.37 57.8199 147.44 59.5999C149 60.1499 148.98 60.2099 149.53 60.9799C139.52 58.5099 129.59 57.4299 119.6 60.3599Z" fill="#CE0B2A"/>
<path d="M104.78 28.45C104.82 27.41 104.65 26.4 104.28 25.42C108.01 24.75 111.75 24.95 115.49 25.39C120 25.92 124.43 26.83 128.81 28.04C129.66 28.28 130.49 28.59 131.27 29.02C131.5 29.15 131.72 29.31 131.57 29.56C131.43 29.8 131.22 29.56 131.03 29.52C125.5 28.22 119.9 27.47 114.22 27.43C111.04 27.42 107.89 27.81 104.78 28.45Z" fill="#CE0B2A"/>
<path d="M102.33 39.51C102.57 38.11 101.42 37.38 100.71 36.28C102.61 36.28 104.41 36.15 106.19 36.32C107.76 36.47 109.16 35.6 110.7 35.84C111.02 36.08 111.41 36.27 111.66 36.56C112.3 37.3 112.41 38.13 111.9 39C111.42 39.82 110.26 40.46 109.36 40.04C107.46 39.16 105.49 39.64 103.56 39.5C103.15 39.48 102.74 39.51 102.33 39.51Z" fill="#351857"/>
<path d="M85.5101 35.8199C84.4601 36.4999 84.0201 37.4199 84.3201 38.6599C80.7901 38.2699 77.3301 37.5299 73.8601 36.7999C70.3601 36.0599 66.8401 35.3099 63.2601 35.1699C60.6401 35.0699 58.0201 35.4199 55.4201 35.8099C51.9501 36.3399 48.4001 36.6299 45.1301 37.9299C43.3401 38.6399 42.2901 37.7599 41.0501 36.9599C40.6801 36.7199 40.7101 36.4999 41.0801 36.2899C41.7401 35.9199 42.4401 35.6499 43.1701 35.4699C50.2701 33.6799 57.4801 32.5899 64.8201 32.6599C68.5201 32.6999 72.1401 33.4399 75.7701 34.0599C79.0201 34.6099 82.2601 35.2299 85.5101 35.8199Z" fill="#CE0B2A"/>
<path d="M79.1102 55.98C80.8502 57.16 82.7302 58.11 84.5602 59.13C84.9601 59.36 85.0901 59.5 84.6301 59.77C83.7101 59.84 82.8102 60.01 81.9602 60.38C81.5902 60.86 82.0202 61.14 82.2402 61.48C82.5502 62.54 83.4701 63.18 84.0602 64.05C84.0602 64.32 84.2802 64.46 84.4402 64.62C85.0602 65.25 85.7202 65.83 86.0002 66.74C86.3702 67.95 87.3102 68.75 88.2402 69.54C88.4701 69.65 88.3502 70.14 88.7802 70.04L88.7602 70.02C88.7002 70.23 88.7802 70.3 88.9902 70.25L88.9702 70.23C88.9802 70.39 88.9902 70.54 89.0002 70.7C88.3102 70.53 87.6302 70.36 86.9402 70.19C84.4802 69.32 82.3002 68.01 80.4802 66.14C80.1602 65.66 79.8302 65.17 79.5102 64.69C79.2602 64.27 79.0201 63.85 78.7701 63.42C78.7101 63.06 78.8302 62.56 78.4802 62.39C78.1702 62.23 77.8702 62.55 77.6802 62.86C77.2302 63.01 76.9202 63.35 76.5802 63.66C76.3102 63.61 76.1702 64.22 75.8302 63.81C75.9202 62.12 75.8702 60.43 75.7802 58.73C75.8002 57.8 75.9602 56.87 75.6602 55.95C75.7002 55.42 75.7402 54.9 75.7902 54.28C76.9402 54.85 78.0302 55.41 79.1102 55.98Z" fill="#351857"/>
<path d="M75.67 55.9199C75.97 56.8399 75.8 57.7699 75.79 58.6999C70.09 58.9999 64.45 59.7999 59.05 61.6699C57.62 62.1599 56.69 61.9999 55.67 61.1199C55.34 60.8399 54.69 60.6799 54.74 60.2699C54.8 59.7499 55.46 59.5999 55.92 59.4299C59.74 58.0099 63.73 57.2999 67.75 56.7199C70.37 56.3399 73.01 55.9799 75.67 55.9199Z" fill="#CE0B2A"/>
<path d="M75.8398 63.7798C76.1798 64.1998 76.3198 63.5898 76.5898 63.6298C76.7998 64.4998 76.3798 65.3398 76.4798 66.2098C76.5298 66.6198 76.1098 66.5098 75.8698 66.5398C72.3198 67.0198 68.7898 67.6098 65.3398 68.5498C64.6198 68.7498 63.9198 69.0198 63.1998 69.2098C62.7198 69.3398 62.3198 69.9498 61.8298 69.6798C60.9398 69.1898 60.1098 68.5798 59.2998 67.9598C58.9198 67.6598 59.3798 67.4798 59.5498 67.3698C60.3698 66.8698 61.2798 66.5598 62.1998 66.2998C66.6598 65.0498 71.2298 64.2998 75.8398 63.7798Z" fill="#CE0B2A"/>
<path d="M94.3602 74.71C93.8002 74.24 93.2502 73.76 92.6602 73.27C93.0402 72.98 93.3302 73.1 93.6002 73.33C95.1202 74.6 96.9401 74.61 98.7701 74.54C99.3401 74.52 99.9002 74.7 100.12 75.07C100.37 75.51 99.6401 75.7 99.4501 76.08C99.3201 76.19 99.1902 76.29 99.0702 76.41C97.6102 77.84 97.6202 77.83 96.1402 76.34C95.5702 75.76 95.1302 75.05 94.3602 74.71Z" fill="#351857"/>
</svg>
